/* XPM */
static char *_c2d91b548794976a621be6efa1bf220LOA5SJckHl06r9xE[] = {
/* columns rows colors chars-per-pixel */
"64 64 89 1 ",
"  c #020103",
". c #070608",
"X c #080709",
"o c #0B0A0C",
"O c #0F0E10",
"+ c #100F11",
"@ c #131214",
"# c #171618",
"$ c #1C1B1D",
"% c #1F1E20",
"& c #201F21",
"* c #242325",
"= c #282729",
"- c #2D2D2E",
"; c #2F2F30",
": c #323133",
"> c #373638",
", c #3B3A3C",
"< c #403F41",
"1 c #444344",
"2 c #484749",
"3 c #4C4B4D",
"4 c #4F4F50",
"5 c #535354",
"6 c #575658",
"7 c #585758",
"8 c #5B5B5C",
"9 c #5F5F60",
"0 c #626263",
"q c #676768",
"w c #686769",
"e c #6B6B6C",
"r c #706F71",
"t c #737374",
"y c #7B7B7C",
"u c #7F7F80",
"i c #828182",
"p c #878788",
"a c #8B8A8B",
"s c #949495",
"d c #9A999A",
"f c #A4A3A4",
"g c #A7A7A8",
"h c #A8A7A8",
"j c #ADADAD",
"k c #AFAFB0",
"l c #B4B4B4",
"z c #B7B7B8",
"x c #B8B7B8",
"c c #BBBBBC",
"v c #BFBFC0",
"b c #C1C1C1",
"n c #C4C4C4",
"m c #C6C6C6",
"M c gray78",
"N c gray79",
"B c gray80",
"V c gray81",
"C c #CFCFD0",
"Z c #D0CFD0",
"A c gray82",
"S c LightGray",
"D c #D5D5D5",
"F c gray84",
"G c #D8D8D8",
"H c gray86",
"J c #DBDBDC",
"K c gainsboro",
"L c #DEDEDF",
"P c #DFDFDF",
"I c gray88",
"U c #E3E3E3",
"Y c #E4E4E4",
"T c #E7E7E7",
"R c gray91",
"E c gray92",
"W c #ECECEC",
"Q c gray93",
"! c #EFEFEF",
"~ c gray94",
"^ c #F3F3F3",
"/ c #F3F3F4",
"( c #F4F4F4",
") c #F6F6F6",
"_ c gray97",
"` c #F8F8F8",
"' c #FBFBFB",
"] c gray99",
"[ c white",
/* pixels */
"[[[[[[[[[[[[[[[[[[[[[[[[[[[[[[[[[[[[[[[[[[[[[[[[[[[[[[[[[[[[[[[[",
"[[[[[[[[[[[[[[[[[[[[[[[[[[[[[[[[[[[[[[[[[[[[[[[[[[[[[[[[[[[[[[[[",
"[[[[[[[[[[[[[[[[[[[[[[[[[[[[[[[[[[[[[[[[[[[[[[[[[[[[[[[[[[[[[[[[",
"[[[[[[[[[[[[[[[[[[[[[[[[[[[[[[[[[[[[[[[[[[[[[[[[[[[[[[[[[[[[[[[[",
"[[[[[[[[[[[[[[[[[[[[[[[[[[[[[[[[[[[[[[[[[[[[[[[[[[[[[[[[[[[[[[[[",
"[[[[[[[[[[[[[[[[[[[[[[[[[[[[[[[[[[[[[[[[[[[[[[[[[[[[[[[[[[[[[[[[",
"[[[[[[[[[[[[[[[[[[[[[[[[[[[[[[[[[[[[[[[[[[[[[[[[[[[[[[[[[[[[[[[[",
"[[[[[[[[[[[[[[[[[[[[[[[[[[[[[[[[[[[[[[[[[[[[[[[[[[[[[[[[[[[[[[[[",
"[[[[[[[[[[[[[[[[[[[[[[[[[[[[[[[[[[[[[[[[[[[[[[[[[[[[[[[[[[[[[[[[",
"[[[[[[[[[[[gttttttttttttttttttttttttttttttttttttttttg'[[[[[[[[[[",
"[[[[[[[[[[z@                                        @z[[[[[[[[[[",
"[[[[[[[[[H:    $%%%%%%%%%%$*#      $*&$%%%%%%&$%$$   :H[[[[[[[[[",
"[[[[[[[[~8 X$ olIIIIIIIIIIIF5  =*  5FIIIIIIIIIIIIs    8~[[[[[[[[",
"[[[[[[[[a. 5ho a[[[[[[[[[[(t. ;BB- .t([[[[[[[[[[[5 $> .a[[[[[[[[",
"[[[[[[[z@ -FE: 1([[[[[[[[~tX -N[[N; Xt~[[[[[[[[[A@ 9A- @z[[[[[[[",
"[[[[[[H: @j[[r @N[[[[[[[~t  ;N[[[[N; Xt~[[[[[[[[i .l[j@ :H[[[[[[",
"[[[[[!8  i[[[lX a[[[[[[~t. -N[[[[[[N- .r([[[[[[E> >!['i  8~[[[[[",
"[[[['a. 5![[[E: 1/[[[[~t. -N[[[[[[[[N- .t![[[[[lX u[[[!5 .a[[[[[",
"[[[[x@ =F[[[[[e @N[[[~t. -N[[[[[[[[[[N; Xr![[[[8 $A[[[[A= @x[[[[",
"[[[H: @j[[[[[[xX a[[(r. ;N[[[[[[[[[[[[N- .t![[F$ 6'[[[[[j@ :H[[[",
"[[!8  u[[[[[[[!- 1((t  -m[[[[[[[[[[[[[[N- .t([a .h[[[[[[[i  8~[[",
"[[a. 5![[[[[[[[t #ct. ;N[[[[[[[[[[[[[[[[N-  tI, :T[[[[[[[!5 .a[[",
"[l@ -F[[[[[[[[[xo =X :B[][[[[[[[[[[[[[[[[B; .1o y[[[[[[[[[G- @z[",
"F:  1yyyyyyyyyye+    3yyyyyyyyyyyyyyyyyyyy3     8yyyyyyyyyy<  :F",
"3                                                              3",
"a@   #$$$$$$$$$$$.  $$$$$$$$$$$$$$$$$$$$$$$$.  $$$$$$$$$$$$   @p",
"'f#  0FLKHLHKKKHH5 XfLHHHLHHKKKHHHLHHHHLJJLl@ ,FLHKKHHLHLF0  $f'",
"[[l$ Xy~[[[[[[[[[c@ 8'[[[[[[[[[[[[[[[[[[[[[t .h[[[[[[[[[!y. $j[[",
"[[[c* .w![[[[[[[[(8 @b[[[[[[[[[[[[[[[[[[[[B$ 2![[[[[[[[!w. *x[[[",
"[[[[m-  8T[[[[[[[[c@ 8'[[[[[[[[[[[[[[[[[[[t Xf[[[[[[[[T8  ;m[[[[",
"[[[[[C>  5L[[[[[[[(8 +c[[[[[[[[[[[[[[[[[[B$ 2([[[[[[[L5  >B[[[[[",
"[[[[[[H1  1H[[[[[[[c@ 8'[[[[[[[[[[[[[[[[[e oj[[[[[[[H1  1H[[[[[[",
"[[[[[[[I3  >A[[[[[['8 Oc[[[[[[[[[[[[[[[[B$ 2([[[[[[Z>  3L[[[[[[[",
"[[[[[[[[T8. :m[[[[[[b@ 8([[[[[[[[[[[[[[]w Xl[[[[[[m:  8E[[[[[[[[",
"[[[[[[[[[!w. *c[[[[['8 +c[[[[[[[[[[[[[[N@ 3([[[[[c= .q![[[[[[[[[",
"[[[[[[[[[[~t. %k[[[[[b@ 8([[[[[[[[[[[[]0 oz[[[[[l$ .t![[[[[[[[[[",
"[[[[[[[[[[[(io $f'[[['8 Ox[[[[[[[[[[[[m@ 6([[[[f$ oi([[[[[[[[[[[",
"[[[[[[[[[[[['aO @d'[[[m@ 5([[[[[[[[[['0 ox[[['d@ oa'[[[[[[[[[[[[",
"[[[[[[[[[[[[['d# @a([['0 oc[[[[[[[[[[m@ 5([[(ao @d'[[[[[[[[[[[[[",
"[[[[[[[[[[[[[[[f$ oy([[m@ 6([[[[[[[['8 oc[[(iX $h[[[[[[[[[[[[[[[",
"[[[[[[[[[[[[[[[[l* .t~['0 +z[[[[[[[[b# 8_[~tX *x[[[[[[[[[[[[[[[[",
"[[[[[[[[[[[[[[[[[x-  0E[m# 5([[[[[[(8 oc[E0  =x[[[[[[[[[[[[[[[[[",
"[[[[[[[[[[[[[[[[[[N:  7T[0 Xx[[[[[[co 8'T8  :N[[[[[[[[[[[[[[[[[[",
"[[[[[[[[[[[[[[[[[[[A,  2IN@ 5([[[[(8 @vL2  ,A[[[[[[[[[[[[[[[[[[[",
"[[[[[[[[[[[[[[[[[[[[L2  1Se ox[[[[xo 0F1  2L[[[[[[[[[[[[[[[[[[[[",
"[[[[[[[[[[[[[[[[[[[[[I5  >d$ 3([[(6 #s>  6I[[[[[[[[[[[[[[[[[[[[[",
"[[[[[[[[[[[[[[[[[[[[[[E0  =- ol[[lo ==  0E[[[[[[[[[[[[[[[[[[[[[[",
"[[[[[[[[[[[[[[[[[[[[[[[!e. X  3~(6  . .eE[[[[[[[[[[[[[[[[[[[[[[[",
"[[[[[[[[[[[[[[[[[[[[[[[[~y.   .lxX   oy~[[[[[[[[[[[[[[[[[[[[[[[[",
"[[[[[[[[[[[[[[[[[[[[[[[[['aX   11   oi'[[[[[[[[[[[[[[[[[[[[[[[[[",
"[[[[[[[[[[[[[[[[[[[[[[[[[[[s@   .  +s'[[[[[[[[[[[[[[[[[[[[[[[[[[",
"[[[[[[[[[[[[[[[[[[[[[[[[[[['f#    @f[[[[[[[[[[[[[[[[[[[[[[[[[[[[",
"[[[[[[[[[[[[[[[[[[[[[[[[[[[[[j$  $j[[[[[[[[[[[[[[[[[[[[[[[[[[[[[",
"[[[[[[[[[[[[[[[[[[[[[[[[[[[[[[x**z[[[[[[[[[[[[[[[[[[[[[[[[[[[[[[",
"[[[[[[[[[[[[[[[[[[[[[[[[[[[[[[[NN[[[[[[[[[[[[[[[[[[[[[[[[[[[[[[[",
"[[[[[[[[[[[[[[[[[[[[[[[[[[[[[[[[[[[[[[[[[[[[[[[[[[[[[[[[[[[[[[[[",
"[[[[[[[[[[[[[[[[[[[[[[[[[[[[[[[[[[[[[[[[[[[[[[[[[[[[[[[[[[[[[[[[",
"[[[[[[[[[[[[[[[[[[[[[[[[[[[[[[[[[[[[[[[[[[[[[[[[[[[[[[[[[[[[[[[[",
"[[[[[[[[[[[[[[[[[[[[[[[[[[[[[[[[[[[[[[[[[[[[[[[[[[[[[[[[[[[[[[[[",
"[[[[[[[[[[[[[[[[[[[[[[[[[[[[[[[[[[[[[[[[[[[[[[[[[[[[[[[[[[[[[[[[",
"[[[[[[[[[[[[[[[[[[[[[[[[[[[[[[[[[[[[[[[[[[[[[[[[[[[[[[[[[[[[[[[[",
"[[[[[[[[[[[[[[[[[[[[[[[[[[[[[[[[[[[[[[[[[[[[[[[[[[[[[[[[[[[[[[[[",
"[[[[[[[[[[[[[[[[[[[[[[[[[[[[[[[[[[[[[[[[[[[[[[[[[[[[[[[[[[[[[[[[",
"[[[[[[[[[[[[[[[[[[[[[[[[[[[[[[[[[[[[[[[[[[[[[[[[[[[[[[[[[[[[[[[["
};
