/* XPM */
static char *_1db98a04bb8490491483be8667f1ca0rQGDEh2A6nt492Ly[] = {
/* columns rows colors chars-per-pixel */
"64 64 61 1 ",
"  c black",
". c #040404",
"X c gray4",
"o c gray6",
"O c #101010",
"+ c gray9",
"@ c gray10",
"# c gray11",
"$ c #232323",
"% c gray15",
"& c #2A2A2A",
"* c gray18",
"= c #323232",
"- c #343434",
"; c #3A3A3A",
": c #3C3C3C",
"> c gray26",
", c #444444",
"< c gray29",
"1 c gray30",
"2 c #535353",
"3 c #565656",
"4 c #585858",
"5 c gray37",
"6 c #626262",
"7 c gray40",
"8 c DimGray",
"9 c gray43",
"0 c #727272",
"q c gray46",
"w c #797979",
"e c #7E7E7E",
"r c #838383",
"t c gray53",
"y c #8E8E8E",
"u c gray59",
"i c gray60",
"p c gray61",
"a c #A2A2A2",
"s c #A9A9A9",
"d c #AEAEAE",
"f c #B2B2B2",
"g c #B6B6B6",
"h c #B9B9B9",
"j c gray75",
"k c gray76",
"l c #C5C5C5",
"z c #CBCBCB",
"x c #CDCDCD",
"c c #D2D2D2",
"v c #D5D5D5",
"b c gray86",
"n c gray87",
"m c #E1E1E1",
"M c #E7E7E7",
"N c #E9E9E9",
"B c gray93",
"V c gray95",
"C c #F4F4F4",
"Z c #FBFBFB",
"A c white",
/* pixels */
"                                                                ",
"                                                                ",
"                                                                ",
"                                                                ",
"                                                                ",
"                                                                ",
"                                                                ",
"                                                                ",
"                                                                ",
"                                                                ",
"                                                                ",
"                                                                ",
"                                                                ",
"                                                                ",
"                                                                ",
"                                                                ",
"                .. X  O  ..       .  X   X  ..                  ",
"                . .       . X. .  .  .  .X#  .                  ",
"                  o   oXOO  o OX.O X  +Xo      X                ",
"                .  oX    .XX        X..  @XXX .                 ",
"                X  o =6qw1055w2985w6582057& .X .                ",
"                  # $vCCAZZAVNAZVANCAVAABAv&.. X                ",
"                   .dVbj #.o.5NhgC2.+ & 8ZZu ...                ",
"                 . 9A>wZ@ O ;Zz .cN; o  fx6A5O                  ",
"                 X;Ap &A6.X;Ak oo kA= X$Ze dZ:  .               ",
"               .X.Bv O mh :Ajo.  X.gA, tA$X xV.O                ",
"                 dM*o .0C5CgXO   .X lA>na. o%Bf..               ",
"              ..8As>568eVAN5435976517BZZi296:gA5.               ",
"              . MZZAAAVAAVAAAAAVVZAAAANAANAAAAZn                ",
"                &mV>#*$%7C7+@&&%-#&$O9A8@&&#:Cm=.               ",
"               . #vA$.o Xns+        +dBX o %Av# .               ",
"                .X@lA>o. 3A>XX o ..X:A5 + <AkO...               ",
"                   XjA<.X bx o o  O jN X.<Aj.                   ",
"                 o  XiA7  1A6 O  o 2A4 .7AiX  o                 ",
"                 . O  iA0 .vj.  X .dboX0Ai  O .                 ",
"                +  oX .yAt 2A1+  o,A3 rAy. XO. +                ",
"                  .  X  0Ai bx oo kn pAq .X  X                  ",
"                 O. X  o 7Aa,A2  3V3pA7 o  X  O                 ",
"                o    +o O 5VdMzX.cbfC4 o X+    o                ",
"                 . X     X.>ACZ>>ABZ1 +     X .                 ",
"                        X X >BAllAN> X X                        ",
"                         O O.=mZZm=.O O                         ",
"                         .o   $nn$   o.                         ",
"                        X  .o  ==  o.  o                        ",
"                         X X. +  + .X X                         ",
"                          o  o XX o  o                          ",
"                        X .+  O  O  +. X                        ",
"                         X  X  XX  X  X                         ",
"                                                                ",
"                                                                ",
"                                                                ",
"                                                                ",
"                                                                ",
"                                                                ",
"                                                                ",
"                                                                ",
"                                                                ",
"                                                                ",
"                                                                ",
"                                                                ",
"                                                                ",
"                                                                ",
"                                                                ",
"                                                                "
};
