/* XPM */
static char *ad1161bfe24b4d8cc6e1e1839a4b8918r8BHWMEvUoSmGfmO[] = {
/* columns rows colors chars-per-pixel */
"64 64 219 2 ",
"   c #6C4B96",
".  c #6F4F98",
"X  c #6E4098",
"o  c #714B96",
"O  c #72449C",
"+  c #79469A",
"@  c #744D9B",
"#  c #7B4B9D",
"$  c #774396",
"%  c #66519D",
"&  c #6C549D",
"*  c #73529D",
"=  c #7B519E",
"-  c #73589F",
";  c #6E4CA4",
":  c #6F4EA9",
">  c #754BA3",
",  c #7B4DA3",
"<  c #724EAB",
"1  c #7C4EA8",
"2  c #6B55A5",
"3  c #6E58A1",
"4  c #6A56A9",
"5  c #6C59AB",
"6  c #6751A4",
"7  c #7554A3",
"8  c #7D52A4",
"9  c #735BA4",
"0  c #7B5BA5",
"q  c #7453AB",
"w  c #7D53AA",
"e  c #735CAC",
"r  c #7B5BAC",
"t  c #6D5EB3",
"y  c #7653B1",
"u  c #7B55B3",
"i  c #745EB1",
"p  c #7C5CB3",
"a  c #7D5CBA",
"s  c #7561AD",
"d  c #7B61AD",
"f  c #7B60A7",
"g  c #6F63B6",
"h  c #6E64B9",
"j  c #7462B3",
"k  c #7C63B4",
"l  c #7168B7",
"z  c #7C68B7",
"x  c #7365BA",
"c  c #7D64B9",
"v  c #756ABC",
"b  c #7B6ABC",
"n  c #7D70BF",
"m  c #766CC1",
"M  c #796EC2",
"N  c #7C72C3",
"B  c #804C9F",
"V  c #824EA4",
"C  c #8353A5",
"Z  c #8854A7",
"A  c #8358A7",
"S  c #8255AB",
"D  c #8956AA",
"F  c #855AAD",
"G  c #8A5BAD",
"H  c #905CAF",
"J  c #8455B1",
"K  c #845CB3",
"L  c #8A5DB3",
"P  c #835DBB",
"I  c #8D5EBA",
"U  c #915DB2",
"Y  c #915EBB",
"T  c #8B60AF",
"R  c #8061AF",
"E  c #8361B5",
"W  c #8C61B4",
"Q  c #8364BA",
"!  c #8C63BB",
"~  c #836BBD",
"^  c #8B69BC",
"/  c #9263B4",
"(  c #9264BC",
")  c #9865BF",
"_  c #9469BD",
"`  c #996CBE",
"'  c #8470BE",
"]  c #9970BF",
"[  c #8C5EC1",
"{  c #855FC2",
"}  c #8464C1",
"|  c #8C62C4",
" . c #846EC1",
".. c #8C6CC2",
"X. c #8C66C9",
"o. c #9465C2",
"O. c #9A65C3",
"+. c #946CC4",
"@. c #9B6BC4",
"#. c #9566C9",
"$. c #9C6DC9",
"%. c #966FC8",
"&. c #8573C4",
"*. c #8A73C5",
"=. c #8D79C7",
"-. c #8377C8",
";. c #8D74C8",
":. c #8579CA",
">. c #8C7ACA",
",. c #8578C7",
"<. c #9371C6",
"1. c #9D72C4",
"2. c #9F7BC5",
"3. c #9374CA",
"4. c #9D73CA",
"5. c #927DCD",
"6. c #9E79CB",
"7. c #977AD1",
"8. c #A26BC6",
"9. c #A26DCA",
"0. c #A273C6",
"q. c #A27BC6",
"w. c #A374CB",
"e. c #A47BCB",
"r. c #A97CCC",
"t. c #A879CA",
"y. c #A576D0",
"u. c #A67DD2",
"i. c #A97CD2",
"p. c #A877D2",
"a. c #9782CF",
"s. c #9F80C6",
"d. c #9481D1",
"f. c #9D81D6",
"g. c #A184C5",
"h. c #A38BC5",
"j. c #A484CB",
"k. c #AA84CD",
"l. c #A68CCA",
"z. c #AA8CCD",
"x. c #A981C7",
"c. c #B18ACF",
"v. c #A594C6",
"b. c #A895C7",
"n. c #A49AC6",
"m. c #A999C6",
"M. c #A693C9",
"N. c #AA94CC",
"B. c #A69CC8",
"V. c #AB9BCC",
"C. c #B29CCF",
"Z. c #B097CE",
"A. c #A685D1",
"S. c #AB84D3",
"D. c #AC8BD3",
"F. c #AD83D8",
"G. c #AF89DA",
"H. c #A78CD1",
"J. c #B186D2",
"K. c #B38CD4",
"L. c #B28CDA",
"P. c #B48AD8",
"I. c #AD94D2",
"U. c #AE9BD2",
"Y. c #B194D5",
"T. c #B995D5",
"R. c #B29CD4",
"E. c #BA9CD3",
"W. c #B594DA",
"Q. c #BA94DB",
"!. c #B59BD9",
"~. c #BB9BDD",
"^. c #A6A2C7",
"/. c #A7A1C9",
"(. c #ABA3CC",
"). c #ADA9CE",
"_. c #B1A4CF",
"`. c #AFA4D1",
"'. c #AEA9D1",
"]. c #B3A3D3",
"[. c #BAA4D4",
"{. c #B4AAD3",
"}. c #BAABD6",
"|. c #B5A3D9",
" X c #BCA4DC",
".X c #BAAAD9",
"XX c #BDAAD9",
"oX c #BDADD9",
"OX c #BEA9DD",
"+X c #BDAEDD",
"@X c #BBABDB",
"#X c #B6A8D9",
"$X c #BDB1DC",
"%X c #B48AE0",
"&X c #BB95E3",
"*X c #BD9DE2",
"=X c #BC92E8",
"-X c #BFA4E2",
";X c #BEA9E0",
":X c #C09EDD",
">X c #C1A7D6",
",X c #C2A4DE",
"<X c #C1AEDA",
"1X c #C3ABDD",
"2X c #C0A9D7",
"3X c #C2B1DD",
"4X c #C3B1DD",
"5X c #C19DE5",
"6X c #C3A5E3",
"7X c #C6ADE1",
"8X c #C4ABE2",
"9X c #C9ACE6",
"0X c #C7ABE8",
"qX c #C9AAE8",
"wX c #C7B1E1",
"eX c #CDB5E6",
"rX c #CAB3E3",
"tX c #CEB8E7",
"yX c #C8B0EC",
/* pixels */
"{.{.}.oX}.$X}.$X$X3X4XeXeXtXeXeX>X>X[.<X4X<X$X4X$X$X$X$X1XoX{.]._.[.}.$X[._.m.m.V.m.m.V._.R.V.v.n./.(./.B.(.'.'.'.'.^.^.^.).).).",
"{.}.{.}.}.}.}.$X3X3XwXrXtXtXtX4X<X>X>X<X4X<X$X$X$X$X$X$X+X|.].R._.{.}.{.{.m.m.m.V.m.v.m.V.V.V.n.n./././.(.'.'.'.'.)./.^.^.^.).^.",
"{.{.{.}.}..X}.oXoX3X4XwXeXeXeX4X<X2X>X<X4X<X}.}.#X#X{.$X+XOX[.R._._.[.[._.Z.m.m.V.b.v.v.v.V.M.n.B.B.V.B.B.'.{.'.{.'.B.^.^.(.).(.",
").{.).{.{.}.}.oX[.[.2X1X4X9X1X1X>X>X[.>X}.}.{.}.'.'.#X+X+X+X#X].C._.C.[.C.m.b.m.v.v.h.v.v.N.N.M.n.n.n.n.`.#X`.(.'.(./.n.B.(.(.'.",
"_._._.].[.[.oXOX[.>X,X1X7X1X1X1X>XE.C.[.[..X.X|.U.].|.@X;X;XOX|.[.C.Z.E.C.Z.b.b.h.h.v.l.N.M.N.M.M.M.B.`.`.#X#X`.`.(.B.n./.(.'.`.",
"_._._._.].}..XOX2X1X,X1X9X9XqX1XC.E.E.E. XOX@X#X].|.|. X;X XR.R.E.Z.C.Z.Z.N.l.l.s.h.h.v.z.N.z.l.M.V.U.U.|.#X#XU.`.V.B.n.B.(.`.(.",
"_.C._._.]..XOX1X1X,X1X9X9X9X9X,XE.:XE. X|.8X;X;X|.!.!.|.!.!.U.I.R.Z.b.b.Z.l.h.h.h.h.l.j.l.l.l.l.M.I.U.I.U.!.|.`.U.V.N.n.B.V.`.`.",
"_._.C._.[..X8X8XOX,X6X1X9XqXqX,X:X,X6X X8X9X0X;XR.R.!.R.!.!.I.I.T.N.z.z.z.l.x.h.l.k.l.g.g.s.g.l.H.I.I.N.l.N.U.|.U.U.B.M.B.`.`.`.",
"].V.R.R.].|.;X8X,X X,X6XqXqXqX,X:Xc.:X:X:X:X-XyX|.!.!.I.I.Y.W.!.z.z.N.z.j.s.s.h.j.g.q.2.2.s.j.j.z.H.z.z.z.D.I.R.N.N.N.B.N.V.`.;X",
"R.R.R.R. X X,X6X,X X X6XqXqX5X:X:Xc.:X:X~.E. X-X-X*X!.Y.Y.Y.Y.D.D.J.K.J.j.q.q.x.q.g.q.q.2.6.r.j.j.k.A.z.j.H.I.I.U.U.U.N.N.U.`.`.",
"R.R.R.|. X-X X*X5X~.~.~.:X:XT.c.T.:X:X:XT.W.Q.~.-X&XY.G.Y.W.D.A.J.D.k.k.j.q.1.2.1.e.q.2.1.e.e.r.i.S.S.A.H.J.L.Y.!.U.I.B.M.I.|.|.",
"R.Y.I.R. X6X6X-X-X~.T.!.Q.T.c.r.r.J.r.T.T.W.K.D.L.I.H.H.D.F.A.k.S.q.q.r.2.] ] ] 1.1.6.e.6.6.e.u.S.K.J.A.A.K.Y.Y.L.I.H.s.M.U.R.|.",
"U.N.I.Y.!.6X6X6X5XQ.Y.T.~.Q.K.J.x.r.t.x.K.Y.H.s.A.A.A.A.e.2.e.e.r.1.1.] 1.` ` ` ] 6.4.w.w.1.0.w.w.i.S.r.r.A.D.D.H.l.M.s.M.U.I.|.",
"I.I.N.Y.!.~.6XqX~.Y.z.Y.Q.:X:XK.K.J.x.x.J.P.D.2.s.A.G.A.e.6.2.k.q.1.` 1.] _ _ ` 1.0.u.w.4.1.$.0.p.i.p.e.r.i.S.D.j.l.s.h.a.U.U.U.",
"I.R.!.R.W.!.*X6X~.K.x.k.J.Q.P.K.K.J.k.t.r.A.k.e.j.j.D.F.k.e.r.r.e.0.0.1.` ( ( @.$.w.p.y.@.o.@.%.p.u.p.r.r.S.S.D.H.j.s.s.M.I.I.N.",
"I.W.*X*X!.W.*X6X5XK.x.t.r.J.J.t.0.t.q.] ` 1.6.e.<.1.6.2.e.e.6.0.0.w.0.1._ / ( @.0.y.y.9.o.( o.o.9.y.y.w.0.r.S.k.A.j.s.H.H.I.N.N.",
"=XL.G.L.W.&X*X5X5XQ.J.r.r.r.w.w.8.0.1.] _ _ ` ] 1.0.1.1._ ( / ! _ @.@.( ( I Y Y 8.#.8.8.O.Y #.9.$.$.4.u.y.4.1.r.r.F.S.H.D.I.Y.I.",
"=X%XG.L.L.W.&X*X&XP.S.r.t.t.t.w.@.` @.` ( _ ` ` 1.1.w.1.` _ ( ( W W ! ^ I ! Y o.#.9.8.8.O.o.O.9.$.#.$.$.4.$.4.w.k.F.K.A.D.G.D.H.",
"%XG.F.S.D.G.&X*X~.P.k.q.w.0.8.8.` _ ( ( _ ( ` ( ` @.@.@._ ( ( / J L J J J L U ( O.O.O.O.O.[ O.O.$.$.$.4.w.4.0.p.r.S.F.S.D.H.H.A.",
"F.F.F.F.F.F.&X5X&XP.i.e.0.8.@.) ) / W W ( _ ( / ! ( / ! W L L W L J S S S F I I O.O.O.Y Y Y Y O.$.$.4.$.9.w.y.r.p.A.S.A.D.A.A.H.",
"F.i.S.F.F.A.P.&XW.P.u.w.0.@.` ) ) ( I W ( _ / W L L L G F F J D L K F S 1 S J I O.O.o.[ I Y Y o.#.$.$.$.$.9.9.t.w.e.e.k.A.A.H.A.",
"F.F.i.F.F.j.u.S.F.i.e.1.0.8.@.) _ / W ! / ( W L J L G F S F F F F F F w S S I I O.O.O.Y Y o.O.o.O.$.9.9.9.9.w.9.w.8.6.r.u.u.s.A.",
"i.u.p.F.F.u.6.e.i.e.1.1.@.8.@.) _ ( / W W L G S F D F F S V S F F G F S S F L ! o.@.O.o.Y o.o.( @.9.y.9.y.9.p.8.0.@.@.1.0.2.6.6.",
"p.9.w.u.F.u.u.e.u.e.$.@.@.` ) ( _ ) ( W L L S S F F S S w 1 8 S J J F F S S L L ( o.o.Y I ( ) I O.9.9.9.9.9.8.O.9.` @.1.1.<.3.6.",
"8.8.$.w.p.i.i.i.p.y.y.$.0.@.O.) / ( / / I G F S L w , 8 , , S F G G F F S S F L ! ( ( ( o._ o.o.@.8.O.Y O.8.8.O.8.w.0.4.$.1.4.2.",
"8.8.w.w.p.p.i.i.y.7.$.$.%.@.@.@.` _ ( ( / L F F F C , S S , S F F L G F C 8 S F ! W ! ! ! ! ( ( ) O.Y L Y ) O.( $.8.0.0.1.4.6.6.",
"8.9.w.9.9.p.p.9.$.%.#.#.o.o.O.O._ _ ( ( W I L G S 8 S S S S S S G L F F C , w S W L W L ! W ! ^ o.( Y I I ) O.O.8.$.1.$.7.6.7.3.",
"8.9.9.9.#.9.#.9.$.3.#.#.( ( ( ( / _ ( / L L F L 8 , S 8 S S S F G L G F S 8 C S L K J J L ! ! | ( ( I I Y ) 9.w.$.@.%.%.4.4.3.3.",
"8.8.8.8.O.O.#.#.#.#.#.#.o.! I U ( ( ( W L F F F S S 8 8 C S F F G G G A S C A K F r S r E ! ^ _ I I L L I o.$.w.$.+.@.%.4.3.%...",
"8.8.8.O.O.O.O.#.| | o.o.o.( Y Y / _ ( W G S S F S S S , , S F F C A G F A F F W A w r J ! ! +._ ! I I I I ( o.4.4.%.%.%.%.;.#.;.",
"8.8.) ) O.#.O.#.[ I [ I ! I Y I ! ( / L S 8 8 S F G F S S F F C C C G G F A F G S w w F E ! ^ ! W L L ! I ! o.3.$.$.+.+.+.;.3.7.",
"8.8.) Y [ #.#.#.o.[ I P P L G L W W W G , , , , F I I F F F S , C C A F C A F F S 0 w r W ^ ! P r w u K L K ! @.@.$.3.#.;.3.7.f.",
"$.$.O.o.o.o.o.o.I ( Y L J L I J ( K S S S , , , S S L W F , , F G G H H G B C A F 7 8 F E ..X.K Q K p K I ! o.@.@.o.^ ..*.;.;.;.",
"o.o.Y ! I ( ( ( I ( Y L G L J J W F S S w 8 , 1 A F L I J 8 w D D H G G C = = A A 7 7 F k ^ ..Q Q K K ^ o.! ! ( #.+.^ #.<.;.&.' ",
"I [ I I ( [ ! I J I I L J J V V S C S S S , , S F J L L G S F L D D G D B = o = 8 = 8 r p Q ..^ a K P ^ ! ! I I ! ! +...;.*. .b ",
"[ o.o.o.o.( I J J K I L J S , V , 8 S F C , Z J F F D F S 8 S D D G G D C = = = @ @ 0 f r K | ~ p p K Q ^ I L L ! E ^ ..<.;.&.~ ",
"O.#.@.@.O.o.I L S F J G J 1 , > , V S D S V V D D D D F V S D D A H H A C B A - * @ F Q P Q ..^ Q p p ! ! ! W ! P K Q ^ *.*.*.&.",
"#.o.#.@.$.@.( ! J J S J V > > > , , V D S V S J L Y I D S D D D H T / T A B A B * 7 R ^ ^ ..;.} Q E K K Q ! ^ | ! Q K Q ..&.*. .",
"o.o.o.o.#.o.I I K J S 1 1 O > , , V V S Z V V Z H U H D C Z Z C A H T A B B . . 7 = r ^ ^ ..;. .Q E p Q Q ! ! ^ K E E ~ ..*.*.&.",
"o.o.( o.o.I K S I J V 1 , O O V V V V V V V V V D H H D Z Z Z B H H T A . = o o 7 * r k Q ~ ..Q Q p p E P K p K r i p ~ *.>.>.>.",
"P I o.( I J J S J 1 1 1 1 > > V + $ + Z Z + B H / H H Z Z Z Z H T T A A . o o o o * 7 0 E  ...~ p p p p p K E E q q r ~ ;.7.>.>.",
"I o.o.o.I K J S S 1 S 1 > X O , + + B V Z B B Z H H H Z Z Z H T A A A A = . = . . 0 r e a ~ } c p p k K Q E k E p p c  .;.>.>.>.",
"I [ o.o.I J 1 1 1 1 J S > X X + + # V C V Z Z B C Z H Z Z Z T T A T A A = - * * 7 0 d Q  . . .c p k E Q Q c c k Q ~ ~  .*.&.,.;.",
"| o.) I I J 1 , 1 1 S V , + > , Z S C C Z G A C B T / T Z A H Z A A A - = . . . * 9 f ~ ..*.*...k p p E k k Q c ~ &.*.*.&.&.&.&.",
"[ [ [ Y J J 1 > S 1 1 > , 1 1 8 C T T A A T G A Z T / T G G A A - A = 0 = o . .   % 7 z ~ *. . .Q E p e i p c ~ ~ &.*.,.&.&.~ b ",
"Y J I J P J V > J 1 > O > 1 S V = A A A A G G C A T / / T T G C o . . = . * = - * & 9 z ~ ~ b c Q p e q q r c ~ b ~ &.*.*.&.~ &.",
"J J J J J J 1 > S J , > > V S , = C A A A A A A T T T T T T A 8 o o . . * = - f f f d ~ ~ Q j k k p q q 2 e j c k z b &.>.>.&.&.",
"J J u J J J V > 1 F J S 1 V S C = = A A A = A T A T T T T T A @ = = = * * * 0 f f s s z z j e 5 p r q 2 q e j c j j b ;.>.>.>.' ",
"u u J u > < > q 1 J L S , V S Z A C G / / T T T T W T A T R T A 7 = * 7 0 0 0 f 9 9 9 9 d c i 6 5 q i i e i i j z c z *.a.a.=.' ",
"J u J u < > 7 w > F L F V V V V , # C W _ _ W T T T T T T T T 0 0 7 - 7 0 f f - 9 9 9 e s j 5 6 5 e i i i i i p s j z *.5.a.5.*.",
"P P u < < ; > < w F K S V V V Z # O = L _ _ / T W W F R W ! T 0 F q - * f f 0 . - 3 3 3 e s e 2 4 5 5 i i i i i j c ' =.a.a.=.' ",
"P P u < ; < q r K K r , + V Z H # # 8 F H T F F W W F G R W W R R r 7 7 f r - & 3 - 3 & 5 s 5 2 4 4 e i e i e i ~ ~ =.a.a.a.] ' ",
"P J y < ; < r u K K S , + , V U V 8 C F A 8 A F W W T A F E T R R F f r 7 9 - & 3 & % % 2 s 5 2 4 4 4 4 4 5 i j b &.a.d.d.,.' n ",
"P J y < < < u p K J r r < , V V , , C S 8 8 A K W / W R F E W ^ R E E f 9 - & - & & % % 2 e g 4 4 4 4 4 4 t x b b &.>.d.d.&.' z ",
"P u y < < q u K p u r K w 8 , 8 8 w r S w 8 w S R ! _ W E R W ^ W E R 0 9 3 - - 3 & % % 2 j 5 4 4 5 t t t j b  .&.&.:.d.a.>.' z ",
"P u < < < q u p Q r q w w , , S S S S S S 8 , > F _ <.] ! W W ^ ^ E p f f f & % % & % % 5 e j 5 5 t i a b M  .&.>.>.d.d.a.,.z l ",
"{ a y u q ; < p Q p r q w q S F G 8 , S ! K 8 . A W ^ _ ^ W E W Q R R z f s 0 3 % 9 e % 4 g i 5 t t j m N v v m ,.:.,.,.>.>.-.v ",
"{ u y y y : y c P p u r w 8 w F E S 8 F K F w 8 K W ! ^ ^ W ^ _ Q ' E E f 0 9 9 3 s s 2 4 s x j x t t v v l l l :.>.-.&.&.-.,.n ",
"P y < y y y p a k p p i q 7 7 K K J r F F F r K E E W E ^ ^ ' <.^ ^ ~ f 0 e 9 3 9 s s 5 4 s v v x t g x l h h l :.:.,.N n n &.N ",
"{ u y y u i a a p p p p 7 ; > r I L K S w w K K E K E E ^ _ ] <.<.' ~ f e 3 f s 3 s s 5 4 g b N m x h l h g h l -.:.-.N v v n ,.",
"{ a u u a a a x p i p i q ; < r K W W F w r K ! W W E Q ^ <.3.<.3.' ^ d s e s s f s s e 5 a m M m m t m l h h v N N :.N v l n n ",
"X.{ a a a } a a i p p p e q q r K ( ! K S r K W E E ! ^ ^ <.<.<.3.*.Q j s 0 d d z l j j x a M m m x h m m m m m N N -.-.n l l l ",
"X.X.{ a a } Q c a a p ~ k r r K K ^ ( ^ P W E E K W ..+.<._ _ <.*.~ Q d s s d z z s j c z m m x h h h m m m m N m N :.-.-.v l l ",
"X.{ { { } } } } b x c Q ~ c K Q K ^ +.+.! ! E E F ! <.3.<.+.~ ..^ ^ k s f s d z z s 5 j m b h t t t h m m N N N N m N :.-.l l l "
};
