/* XPM */
static char *fcfda84e42e54a47d53f9dfc52cbe9c8Iobj6RFDfRrHTvRt[] = {
/* columns rows colors chars-per-pixel */
"64 64 256 2 ",
"   c #02030B",
".  c #05040A",
"X  c #020314",
"o  c #010B13",
"O  c #02051B",
"+  c #010C1C",
"@  c #0C0919",
"#  c #130516",
"$  c #02131C",
"%  c #061619",
"&  c #131016",
"*  c #010C23",
"=  c #0B0C23",
"-  c #010D2A",
";  c #050728",
":  c #021324",
">  c #0A1323",
",  c #031924",
"<  c #01142B",
"1  c #0A142B",
"2  c #011A2C",
"3  c #0B1B2C",
"4  c #0C1923",
"5  c #141729",
"6  c #031432",
"7  c #021C34",
"8  c #0B1C33",
"9  c #021C3A",
"0  c #0A1838",
"q  c #151B37",
"w  c #070E2D",
"e  c #261B32",
"r  c #07232B",
"t  c #022334",
"y  c #0B2233",
"u  c #02233B",
"i  c #0C233B",
"p  c #032B3A",
"a  c #0A2A38",
"s  c #122334",
"d  c #13253C",
"f  c #132A3C",
"g  c #1A2639",
"h  c #16323B",
"j  c #14282F",
"k  c #242737",
"l  c #27353C",
"z  c #312C33",
"x  c #27231B",
"c  c #453535",
"v  c #4B4A34",
"b  c #041C42",
"n  c #151A4D",
"m  c #291A45",
"M  c #022344",
"N  c #0C2544",
"B  c #0D2B44",
"V  c #062949",
"C  c #142C43",
"Z  c #1C2D44",
"A  c #142848",
"S  c #093448",
"D  c #14344C",
"F  c #1C344A",
"G  c #183748",
"H  c #052854",
"J  c #162A55",
"K  c #073558",
"L  c #1B3D59",
"P  c #183856",
"I  c #262B46",
"U  c #26384A",
"Y  c #383747",
"T  c #252B58",
"R  c #243C53",
"E  c #283A57",
"W  c #343856",
"Q  c #362849",
"!  c #073966",
"~  c #183A65",
"^  c #0E316E",
"/  c #273966",
"(  c #333C71",
")  c #0A1E63",
"_  c #49334E",
"`  c #4F3B6F",
"'  c #643B61",
"]  c #194459",
"[  c #10424E",
"{  c #24435C",
"}  c #294558",
"|  c #364658",
" . c #314A51",
".. c #064667",
"X. c #194767",
"o. c #174975",
"O. c #0F5076",
"+. c #284965",
"@. c #364A67",
"#. c #295669",
"$. c #395469",
"%. c #294875",
"&. c #3A4975",
"*. c #295776",
"=. c #385877",
"-. c #3A626B",
";. c #37647A",
":. c #2D6479",
">. c #2D626B",
",. c #464859",
"<. c #524E53",
"1. c #6D4F54",
"2. c #727155",
"3. c #494A65",
"4. c #465669",
"5. c #565666",
"6. c #485977",
"7. c #555A77",
"8. c #4E4B75",
"9. c #705770",
"0. c #486679",
"q. c #57677B",
"w. c #526F70",
"e. c #666978",
"r. c #706D6E",
"t. c #53675B",
"y. c #8F735C",
"u. c #906F6F",
"i. c #9F6071",
"p. c #748971",
"a. c #5D857C",
"s. c #978A78",
"d. c #8E8A70",
"f. c #A58D75",
"g. c #A6A57D",
"h. c #97A37B",
"j. c #053989",
"k. c #0C528B",
"l. c #2F5786",
"z. c #106892",
"x. c #396885",
"c. c #366795",
"v. c #306F92",
"b. c #0458AA",
"n. c #086EAC",
"m. c #2E71A9",
"M. c #485D86",
"N. c #4F5286",
"B. c #70588D",
"V. c #486886",
"C. c #576887",
"Z. c #49768A",
"A. c #577589",
"S. c #497895",
"D. c #587996",
"F. c #516696",
"G. c #677689",
"H. c #677995",
"J. c #777995",
"K. c #6F6D8B",
"L. c #5075A7",
"P. c #6978A4",
"I. c #7572A6",
"U. c #91578C",
"Y. c #8F768E",
"T. c #AA7994",
"R. c #8F79A7",
"E. c #A474A5",
"W. c #1882A4",
"Q. c #328BAC",
"!. c #398199",
"~. c #578699",
"^. c #528793",
"/. c #688699",
"(. c #758799",
"). c #799797",
"_. c #6C8F8F",
"`. c #78A398",
"'. c #5688A6",
"]. c #4A8AB7",
"[. c #4D91AD",
"{. c #6888A6",
"}. c #7888A7",
"|. c #6895A9",
" X c #7996A9",
".X c #6799B8",
"XX c #7699B4",
"oX c #728AB5",
"OX c #54A5B3",
"+X c #77A7A9",
"@X c #79A7B7",
"#X c #6FB2B4",
"$X c #5494C7",
"%X c #7097C7",
"&X c #72ACCC",
"*X c #5CA3CA",
"=X c #868B98",
"-X c #968896",
";X c #979599",
":X c #8E8F8C",
">X c #A98796",
",X c #B79795",
"<X c #AE918D",
"1X c #91A893",
"2X c #B7A498",
"3X c #ABA992",
"4X c #8688A5",
"5X c #9689A7",
"6X c #8695AA",
"7X c #9698A7",
"8X c #8998B7",
"9X c #959ABA",
"0X c #9287B3",
"qX c #AC88A6",
"wX c #AD90B0",
"eX c #89A5AB",
"rX c #97AAA9",
"tX c #88A7B7",
"yX c #97A7B9",
"uX c #8AB4B6",
"iX c #99B4B6",
"pX c #94B4AB",
"aX c #A6A6A9",
"sX c #A7B5AC",
"dX c #A6A8B6",
"fX c #B8A9B8",
"gX c #A9B6B5",
"hX c #B7B7B8",
"jX c #B8B1AA",
"kX c #C19895",
"lX c #C9AD99",
"zX c #CFB6A9",
"xX c #B5C4B7",
"cX c #9DC6AE",
"vX c #CBC3B2",
"bX c #A995C3",
"nX c #8AA9C5",
"mX c #97A8C3",
"MX c #99B7C8",
"NX c #8FB5CF",
"BX c #A7ACC7",
"VX c #A6B7C8",
"CX c #B6B9C7",
"ZX c #B7BAD5",
"AX c #ACB5D1",
"SX c #9398C1",
"DX c #CDB9CE",
"FX c #93C5CF",
"GX c #ABC4C8",
"HX c #BBC6C7",
"JX c #A5C9DA",
"KX c #B5CFD6",
"LX c #B4D2E3",
"PX c #C5C5C7",
"IX c #CBCED1",
"UX c #C9D2EA",
/* pixels */
"U U U G.E ; M V 9 b 6 2 D 2 $.} A 9 9 N 7 < , $ $ $ $ : O X ; + , % r [ G B P ! ! ! ! V b H K 7 7 < + : + : : 6 / L.%X$Xm.^ ) b ",
"7. .Z A.V.H H P V V 9 B U U ,.j U 9 6 i f h r % $ o $ $ + ; ; * j [ } } $.D.'.c.v.v.O.K H #.=.+.1 1 > , $ + * ; w ~ l.L.L.m.k.H ",
"+.V.V.#.*.x.x.X.9 9 i U z ,.<.l U b 7 C R  .} G h j 3 3 3 1 1 1 j >.0.;.S.%X*X$X*X].!...t p a % * > > = : : * * - b ) l.].*XQ.z.",
"A.Z.^.#.;.V.'.tXV * 8 l <.r.1.t.U S C G G }  . .U h f s y 8 8 B ] ;.;.:.v.v.m.$XOXQ.v.[ 2 % %   O @ O O @ 5 5 8 - 6 b H O.!.Q.!.",
"a.-.w.^.`.)._.uXa.% % z p.:Xy.t.U D D S t y h U j j , , 8 2 7 D S.S.z.O.k.v.v.Q.Q.!.>.[ r % % o X O X X # & > 1 * - 9 6 u ..O.!.",
"t.p.1X).pXKXiX(._.% % j r.r.1. .G S M p < : 3 1 + 4 3 3 a 7 7 D S.[.[.W.v.[.OXOXOXa.-.[ % o     O X X @ X   & k q - 7 < < u p [ ",
"2XjXjX,X;XHXUXLX6X} C Z 6.6.| G S t u t : , 1 $ * s Z U $.P t K l.$X&X&XOX#XuX`.p.a.p. .j % = = O X X # . . z r.I + < : < 2 o p ",
"lXlX,X>Xu.hXIXZXUX X$.@.M.V.=.L M p S a 2 < : : + d U 0.A.-.[ ] v.].&XFXcXcXcXp.p.p.2.<.k & = O O X . X   & 5.HX,., y 2 y h r  .",
"kXkXi.y.1.9.PXCXHXAX4., B S u D S a G a t y : - 1 < < } V.-.;.^.'.OX@X+XGXcXlXg.h.f.y.v c e # ; o o o . .   z =X| j : Z g = I K.",
"i.1.1.1.1.<.fXdXgXyX$.* 2 2 2 p S S [ C i 8 < 8 8 8 * t } #.^.|.@X`.+X1Xh.g.vXlXf.y.y.y.' e # = + % . . .     z  .3 * Z g q W Y.",
"_ Q ` ` 5.8.9XBXZXmXC.- 6 < d i i B } G C C - - O * O 7 D ] Z.|.pXp.1X1Xv 1.kXlXi.i.i.i.1.c @ $ o $ . . & % .   q : * q n e _ Y.",
"N.` P.I.I.I.8XAXZX8XG.- = = q 8 y a G C F } d 2 < * * ] $.[ =.).`.h.h.3Xv c i.U.kXi.i.i.1.z & @   $ o . . & . X X O < 0 q n W B.",
"c.c.I.SXoXXX/.nXJXeX_.4 o o j & s 8 8 < C @.E i N 2 * D { S +._.h.g.s.f.r.9.9.i.i.i.U.U.' e # X o o o . . . . + O - 9 b n T ` B.",
"l.c.].&X.X#XD.+XLXGXrXU % $ 4 4 3 < : * d } B < u u 2 B P L -.G.<X2Xf.:X;Xu.9.9.U.U.U.U.' m = O o     . # . . O * 6 M H A T N.P.",
"[.L.].%X.X|.^.^.JXLXFX .$ * + 8 I 3 8 d f i * 2 u S N L +.@.0.K.u.kX,X-X-XK.K.K.U.U.U.U.' m w ; O . . # # # @ O < 6 M H ) T N.N.",
"&X&X*X%XOX^.:.:.FXLXJX=.2 9 7 | 3.k q Z s < 7 #.B N u L +.A F 3.Y.qXqXE.5XJ.Y.B.' B.` B.` m ; w X . # # . # @ * < 9 K ^ ^ ^ l.l.",
"@XtX|.+X'.|.:.>.~.JX/.a t y F W G.J.,.| I 3 < ] D.{ V +.A / n ( B.E.0XE.R.R.R.F.N.M.M.( T n ; O X   X # # # = = w 6 S ..l...o.o.",
"iXeX+XtX+X+Xa.>.-.^.#.2 2 2 Z R Y J.G.$.F t G < ~.~.D P J J T ( N.U.I.U.B.R.I.I.F.~ P +.N w w O X o o . # # = ; 8 M D o.v.o.l.o.",
"VXiXeXuX+X+X^.>.>. .a 2 2 < f Z f | {.+.] ..p 7 G A.} 4.C.M.K ~ ) ` ` ` N.N.N.N.L.%.P ~ A d 8 * + + O O O @ O = 6 C ] #.x.*.l.%.",
"gXsXsXpX`.+X`.>.#.h 2 2 : 2 a a h $.+Xx.*.x.#.;._.).e.w.H.H.~ &.` N.` j.` l.^ ~ F.'.x.B / { d y 2 < * = ; = = > 3 Z G { +.} @.+.",
"3XaXjX1X1XuX`.-.r o $ : $ 2 r 3 h iX/.^.^.S.|. XrX1X,XaXdXtX=.! I.0XL.j.%.%.o.! o.L.V.D { @.G G u 9 7 6 0 q 8 8 r Z h U I I R U ",
",X3XjX:XpX1Xe.j $ o $ $ , , + , t.iX^./..X{./.=X<X,X<X3XaXdXtX=.m.%XoXl...z.O.K K %.l.@.F ] } G u 9 6 9 8 8 8 s f G j G j 3 g e ",
",X2X2Xs.1Xr.l % % > $ $ l g ,  .gX=X=X(.6X=Xr.:X<X,X<Xf.:X7XAXoXl.L.L.j...O...H K M E +.C C G p 9 6 6 7 0 i i y g h y U g q 5 5 ",
",X2X2X:X;Xv % % > % X & | |  .=XdX7XaX_.9.9.u.u.y.9.u.9.e.Y.6XNX%Xc.~ k...K K ..H N 0 n G G a t 7 7 7 8 d f f a 3 a t W F q 1 0 ",
"kXlXu.u.1.. % 5 + 5   X z ,.e.CXdXBX5X9.' y.' ' ' _ Q Q W N.I.nXNX%Xv.O.......[ b N b 0 q F h t d s s f r } F a G t A $.N A / N ",
"kX<X<Xu.z & 5 & 5 5 5 5 g ,.CXyXnX4XK._ _ _ c m e m ) ) T j.F.P.nX%XS.z.....K S - 6 w ; 0 Z R } g 3 U f  .F } } i D P x.=.%.o.K ",
",X>XY._ X 5 8 1 w q 5 e = Y.CX6XoXF.6./ Q Q n / ) j.j.j.j.l.c.'.%X.X[.v.:...S 7 6 6 6 w w 0 F @.4.@.g } 8 G D +.A @.~ =.M.k.K H ",
"-X>X,.% 1 2 q 0 n I I I 5.IX7X8Xc.k.( J J n J ^ j.j.b.b.n.m.m.$XL.'.|.~.~.;.L - ; * - 6 0 0 A E W U R } $.} { L L %.J ! o.K H H ",
"J.q.6 = B 9 b V N N @.I dXZX(.}.L.m.m.j.) ^ ! k.b.b.n.n.n.Q.Q.OX^.^.'.{.@X/.6.B C 0 i N A 9 n A { $.+.P #.+.=.&.J J H H H H ! ! ",
"}.C N S M K M V b A / C.AXyX7X{.%X$X$Xn.k.k.k.n.b.b.W.W.W.Q.OX#XOX~._._.6X XA.4.} D V N N N 0 b N V.*.Z.%.X.V V H J / o.! ..z.k.",
"oXK *.*.H ..K H ! =.+.8XVXGXVXtX%X$X*X].z.n.z.n.n.W.W.Q.$XOXOX#X#X#X`. X(._.C.q.S t 2 6 9 b n N V o.o...*.M ~ ) J ( F.L.v.W.Q.W.",
"{.S.x.v.O.....! ~ %.=.A.VXKXdXiXNXNXNX*X].m.z.W.W.Q.OXOX#X#XFX#XuXpXeXiX(.e.,.5.| } G B B N b 6 b ! M %.l.L H J b %.P.'..X[.*XQ.",
"}.XX:.X.v.*.X.~ K u G -.GXPXIXvXKXFXJXFX'.[.^.OX#X#XuX+XuXcXiXgX1XcXpXsX:Xr.j r.fX(.j W 3 O : * 6 / H ~ &.J V N N A L *.S.'.v.:.",
"}.mX|.x...:.P L S p p  .cXIXIXIXHXxXGXeX_.~.+X+X+X`.`.cXgXsXgXhX1XxXsXhXsXrXt.;XaX:Xz Y + o : < 6 ~ J J %.Z A D +.- 7 u D *.K u ",
"yX}./.|.S #.J P 0 7 , a yXPXvXIXIXxXxX).`.).`.`.`._.`.sXpXsXgXgXaXgXHXPXPXPX;X;XqXe.Y k & X + 2 9 P +.X.{ D i i @.O a 7 * B , : ",
"BXq.=./.P #.} - q f r j pXIXIXIXvXxXxX:XrXpX1Xh.1X`.1XsX1XsXhXaXgXjXPXhXHXIX7X;Xr.Q z e q X X 2 7 S +.] P D 7 2 E * i 8 2 i : 2 ",
"dXJ.q.D.+.q.H.= 1 q g j ).IXIXvXvXvXg.d.d.h.p.p.h.h.1XcX1XsXgX;X7XaXPXCXHXIX9X=X,.Q _ k 5 O = i 2 p [ S p a 2 < U g O : d 7 O * ",
"BX4XC.C.+.E 0XN.w = s s e.IXIXvXvXzXd.p.v d.2.2.h.h.h.3X3XaXaXaX;XaXZXDXHXIX7X4X5.9.J.Q = = 8 d S S S p , t G y | $.3 1 Z * O - ",
"ZX6XA.A.@.N J.bX8.q I  .w.VXIXvX<Xf.f.d.f.g.g.d.g.h.g.3X2XjXhXfXwXdXCXHXCXGXJ.4XC.K.K.W 5 w q C [ [ S S 2 a 0.| } 4.| U E 0 6 8 ",
"AX9X/.H.C./ 8.4XbXW U } } ).tX;Xy.y.i.f.lXg.f.d.f.g.h.d.:XjXhXwXfXdXyXZXmXVXH.8X4.W I I q q g C B S B G u } 6X(.Z I @.3.@.@.i - ",
"mXNX{.D.V.&.N.K.I.8.F C p G G.7XY.>X>X,X>X,XlXy.g.kXd.2.s.2XCXCX5X7XmXmXmXMX/.NXV.< E Z < 6 - d B V A A E F J.AX8 6 3 U A +.@.P ",
"oX}.{.|.S.M.F.N.K.&.H D S p R q.DXT.>X>X>X<Xu.lX,XlXf.y.<XjXzXfX7X9XyXyXNXNX@XXX;.; $.E 2 i < 2 N T +.F A - T 6.I E T +.b C / E ",
"SX X{.S.l.D.8XF.6.6.] V S S 7 U e.DXE.E.qXT.kX,XkXkXkXi.>XaXfXfXdX8XtXAXnXS.'.@XX.u }.0.O * < * A &.7.&.T ; w q A q @.C.D D $.+.",
"NXNX|.x.;.XXMXP.V.=.] S S S 7 8 5 9.bX0XR.wX>XT.kXkXkXT.>X,XfXwXBX4XSXnX|.*.Z.&XX.u *.V.C * 2 2 / M.F.M.8./ T 0 1 ; - Z d R L @.",
"/.+X^.Z.|.NXNXnX/.S B [ S 7 2 d g O 3.5XqX5X>X>XqXkXqXE.T.wXbXbX9XR.8XD.A.L.'..X'.#.L XX(.8 * C P F.P.P.C.8.W q w * O X Z q.2 d ",
"0.-.>.^.FXFXnXFX/.p S ] p t 2 3 * Y X I fXwXY.qXkXqXwXkXE.E.bXbX9X4X8X6.=.~.~..X@XXXF.LXMXU : 2 A M.D.{.D.4.Z w * X 5 O g =XW X ",
"G.0.>.^.FXFXMXLXw.S [ [ p h 3 + j o j 5 Q wXwXU.qXT.wXwXE.wXbXE.wX0XJ.&.+.*.*.'.S.Z.A.NXVXG.g o ] =.x.D.0.@.d > = X > @   5.5.k ",
" Xw.a.#XLXJXLXLXZ.p h p [ h o 4 r % o + ; W qXBXqXE.wXbXE.bXbXE.R.SX8.H V %.X.] %.X.H.LXmXC.y C Z.x.P @.$.W g 1 @ Y 5 & k x j 5.",
"@XnXuXnXLXKXUXiX@.+.P S D i , $ 4 $ % 3 > O W R.DXR.SXbXbX0X0XSXSX}.&.3.=.M V A J +.V.D.Z. .} #.oXP ] { $.4.W 5 Y Y z k k j l G.",
"@X|.@XiXiXyXBXD.+.+.~ D D C 4 > $ $ + = = + 1 I }.UX9XI.SXI.SX%XP.&.M.{.b ; J %.=.P 1 < t t ] 0.A.} i | J.K.J.<.<.| Y | | 5 % 4.",
"&.R | G.4._.XXV.X.X.~ H C q = & = 3 , : 3 8 1 - E 8XLXAXSX}.8.C.{.L $.'.N P +.@.+.L u < 2 t G 0.yXiX|  .CXaXr.5._ Y ,.Y k 5 & g ",
"q.4.q.(.$.A. XZ.X...K M 7 1 = = X , : $ , 1 8 g A W 8XAXH.H.6.V.Z.Z.;.+.6 V S B 7 { G 7 : 2 F t.e.u.fX2X:XY.<.5 5 z | z > 4 $ o ",
"C.=X(.(.@.@.=.*.X.o.K 9 6 1 > 5 > 2 : + : < y R @.E @.(.6.0./.{ -.^.[ , r S -.{ : B C 7 < 2 I 4.z v ;XhX:X-Xe.k k 3 U  .U h r $ ",
"G.9X6XA.@.E +.x.x.l.X.V 9 3 4 4 s 2 $ < y 8 f R } U $.(./.A.4.C MX^.p % p +.Z.t 2 a U U s 3 U ,._ r.Y.dX7X4.$.G.R C R +.4.D.A.0.",
" X6X}.G.4.0 J &.P.F.=.P G h y r < < * < y 7 y F C f A. XtX).q./.).#., r 2 } 0.f a f U d , k 4.3.e.e.e.gX X-.] M P o.x.x.^.NXMXyX",
"eX/. XtXP.T T ( F.F.&.] } } [ h 8 Z Z C C d C U U A.6XeXyX9XMX(.w.U $ r r w.} y 8 f I 8 k e.(.U 4.5.^. X{.D.K K X.:.|.@XtXtXeXMX",
"eX/.H.JXC.T J &.` 8.}.tX6.} } [ F A I U T C E $./.C.H.yXBXrX4X(.5.l > > I ,. .3 Z * g | C.e.=XW E } }.|.|.^.:.] #.^.@XFXgXGXxXGX",
" XC.8X8X&.T J ( C.F.8X8X0.} -.0.7.@.E E @.} E E 4.4.(.VXVX7XG.e.,.z k Y ,.3.I 8 1 U q.5.U s 5.G.l 4.uXmXMX#X>.[ #._.sXcXxXxXxXxX",
"=X7.BXC.P D D L D.}.MXtX(.0.G.G.7.W E &.6.} U E R 4.(.GXAX7XK.e.Y.9.e.K.J.K.,.4.| 6.4.| g 3 U 4.U q.yXiXGXiXt.l t.`.xXxXlXvXlXlX",
"4XJ.mX@.V V p { /.tXgXeX6X(.(.}.F.+.F @.&.R D +.R 4.6XAXBX5X5X5Xe.8._ 3.3.I Z I | e.7.| k k k ,.,.<.=XrXhXgXr.l <.d.lXvXlXlXlXlX",
"R.9XI.E D p p -.eXiXiX7X(.G.H.6X8XP.=.+.L P P { P 6.6XVXyX6X0X9X8.9.W @.W w 8 1 6 7.J.4.| Y W _ 3.Q e.hXHXzX_.x c d.zXvXvXzXzXzX",
"4XmX6./ ] B D ^.pXGXgXgXe.4.$.P.D.XXXX;.S S P D D $.}.MXbX6X5X4X7.C.W W n * A < 6 4.}.C.3.W Y I 5.k _ aXHXvXu.x x r.2XzXvXvXDXvX",
"8XXX=.@.L C $.7XsXgXPXxXG.D L F.+.Z.|.S.+.K ] X.L $.H.8X9X9X4XK.J.M.M.@.9 6 N 0 2 @.4XJ.k q 5 e ` I I J.CXDXr.x x <.Y.jXDXDXDXDX",
"NX{.V.=.] G G.gXPXaXhXsXe.i ] S.o.P X.x.x.#.#.x.+.+.V.{.6X8XI.K.H.&.{.C.B B 6 9 9 C 6.K.= q @ = I W q K.DXPXt.& & c e.qXBXDXDXDX"
};
