/* XPM */
static char *aaf72ddd59fd4086b23e3d90fac15aab60ZayTDoiWNFiWBZ[] = {
/* columns rows colors chars-per-pixel */
"64 64 256 2 ",
"   c #602C34",
".  c #605337",
"X  c #773957",
"o  c #71344E",
"O  c #763970",
"+  c #711457",
"@  c #2D5571",
"#  c #326F74",
"$  c #704E58",
"%  c #717050",
"&  c #5B5778",
"*  c #4A5273",
"=  c #6C496B",
"-  c #774868",
";  c #77556B",
":  c #6B4876",
">  c #774976",
",  c #695779",
"<  c #775777",
"1  c #695769",
"2  c #556874",
"3  c #706774",
"4  c #53535B",
"5  c #930A39",
"6  c #BA0838",
"7  c #AA0B3E",
"8  c #A22D3B",
"9  c #C7033B",
"0  c #D3043C",
"q  c #B46B12",
"w  c #A95C2F",
"e  c #B56C31",
"r  c #9E5B23",
"t  c #C97833",
"y  c #C37812",
"u  c #91154F",
"i  c #B40E46",
"p  c #92314F",
"a  c #AD324D",
"s  c #911765",
"d  c #A81B6D",
"f  c #893569",
"g  c #973869",
"h  c #893977",
"j  c #953A78",
"k  c #92276D",
"l  c #A93779",
"z  c #B12E73",
"x  c #C80744",
"c  c #D60447",
"v  c #C9164B",
"b  c #D02E54",
"n  c #E72C55",
"m  c #CE356E",
"M  c #E31C54",
"N  c #874658",
"B  c #98475A",
"V  c #975A57",
"C  c #8C5753",
"Z  c #AF4D55",
"A  c #996358",
"S  c #916953",
"D  c #AF6D4D",
"F  c #895569",
"G  c #955668",
"H  c #97457A",
"J  c #855778",
"K  c #965977",
"L  c #8A486E",
"P  c #B95779",
"I  c #AE516E",
"U  c #876478",
"Y  c #916B6D",
"T  c #A76868",
"R  c #AF6C72",
"E  c #C75055",
"W  c #C67449",
"Q  c #CF516A",
"!  c #E8546D",
"~  c #C66768",
"^  c #C86977",
"/  c #D46F76",
"(  c #E46D78",
")  c #398879",
"_  c #748855",
"`  c #718D6F",
"'  c #B48E17",
"]  c #BA8832",
"[  c #B0A033",
"{  c #CD8E13",
"}  c #CF9130",
"|  c #D1A634",
" . c #E7A733",
".. c #DFA419",
"X. c #938E57",
"o. c #B28F52",
"O. c #AFAF56",
"+. c #8E906F",
"@. c #AD9773",
"#. c #94A76D",
"$. c #A9A978",
"%. c #B5A677",
"&. c #B5B77C",
"*. c #ACB36D",
"=. c #91A45A",
"-. c #CE9348",
";. c #D0AA52",
":. c #E2AD4D",
">. c #D8B869",
",. c #CAB371",
"<. c #E5B667",
"1. c #DD857E",
"2. c #CDC771",
"3. c #DBC46A",
"4. c #B3C271",
"5. c #703D84",
"6. c #36738D",
"7. c #3D6690",
"8. c #575886",
"9. c #4D5983",
"0. c #754887",
"q. c #6B5988",
"w. c #775887",
"e. c #6F5390",
"r. c #486789",
"t. c #5A6687",
"y. c #577689",
"u. c #566995",
"i. c #477797",
"p. c #587598",
"a. c #47718E",
"s. c #696888",
"d. c #786687",
"f. c #696894",
"g. c #786896",
"h. c #687699",
"j. c #777998",
"k. c #72748A",
"l. c #497AA5",
"z. c #5678A6",
"x. c #5271A8",
"c. c #6978A8",
"v. c #777AA6",
"b. c #6D6EA8",
"n. c #6D5CA0",
"m. c #903B83",
"M. c #B73887",
"N. c #B13589",
"B. c #AB1F80",
"V. c #C53189",
"C. c #884788",
"Z. c #9A4986",
"A. c #975996",
"S. c #88588E",
"D. c #A54986",
"F. c #B74889",
"G. c #A6538A",
"H. c #B6568A",
"J. c #A95A96",
"K. c #B85996",
"L. c #AF4A94",
"P. c #876985",
"I. c #87758B",
"U. c #967788",
"Y. c #866798",
"T. c #887896",
"R. c #987A97",
"E. c #976691",
"W. c #B76799",
"Q. c #AE6E91",
"!. c #B55AA3",
"~. c #956BA3",
"^. c #9777A9",
"/. c #8774A6",
"(. c #A967A5",
"). c #A375AB",
"_. c #B173AC",
"`. c #C45896",
"'. c #D05492",
"]. c #CB6C8D",
"[. c #EE7782",
"{. c #CA66A2",
"}. c #D370A7",
"|. c #E7609E",
" X c #368997",
".X c #388E90",
"XX c #3993B1",
"oX c #33A5B6",
"OX c #4E8E95",
"+X c #709290",
"@X c #4785AA",
"#X c #5987A8",
"$X c #5797A7",
"%X c #4889B4",
"&X c #5687B5",
"*X c #4999B7",
"=X c #5A97B6",
"-X c #4797AB",
";X c #6786A8",
":X c #6798A9",
">X c #6898B9",
",X c #7796BA",
"<X c #728BAD",
"1X c #48A5BA",
"2X c #58A6B8",
"3X c #4DA5AD",
"4X c #6EA7B5",
"5X c #5BA59A",
"6X c #38A7C8",
"7X c #35AFCF",
"8X c #3E9EC8",
"9X c #489CC4",
"0X c #579BC3",
"qX c #4D8FC1",
"wX c #6799C5",
"eX c #789AC6",
"rX c #48A5C8",
"tX c #56A6C8",
"yX c #47B4DA",
"uX c #54B5DB",
"iX c #4FB0CD",
"pX c #67A8C4",
"aX c #6AB4C6",
"sX c #76BAC9",
"dX c #74A8C8",
"fX c #4DBBE1",
"gX c #7BC8D1",
"hX c #45C2C8",
"jX c #33C0C9",
"kX c #9A849B",
"lX c #8E9190",
"zX c #A78898",
"xX c #AF9392",
"cX c #92A590",
"vX c #B7B887",
"bX c #AEA98D",
"nX c #8F8DAC",
"mX c #B896A7",
"MX c #A98FAD",
"NX c #8FB0AF",
"BX c #B2ACB0",
"VX c #EC8D8C",
"CX c #C7B985",
"ZX c #C2AB8B",
"AX c #C896A8",
"SX c #C6ADB1",
"DX c #DD8783",
"FX c #BCC585",
"GX c #8CC2BC",
"HX c #CCCC8A",
"JX c #E0C983",
"KX c #8594C5",
"LX c #89BCC4",
"PX c #D0BCC4",
"IX c #8FCDD0",
"UX c #A2D8D3",
/* pixels */
"9 0 M n ! ! ! E ( VX1.W Z ( ! E a W ~ ^ / I Q.Q.AXAXAXxXzXzXkXxXT.kXMXMXBXBXBXBXBXBXxXzXzXR J Q.T Y S S A A T R T A T R T ~ ~ E ",
"M n n n n n E W 1.VX1.1.( ( ! 8 E W E ^ ^ G R Q.AXAXAXxXmXzXzXMXR.kXMXBXBXBXBXBXSXSXmXxXU.K K R Y T A A A A T @.R T R T Z ~ ~ W ",
"M 0 0 n n E ! VX1.VXVXVX1.1.! E E ~ Z ~ ^ G R DXAXAXAXxXmXxXkXkXkXMXMXSXBXBXPXPXPXPXSXQ.Y F K R R Y Y T T T T R R T R T Z Z E E ",
"0 0 0 n n n ! ( VXVXVXVX1.1.1.( E Z Q ~ P I G.Q.Q.mX].zXmXzXR.R.R.kXMXBXSXBXBXBXPXSXSXmXK K K G Y G V V Z T T T R T I Z 8 Z E E ",
"c c c c M n n ! [.VXVXVX1.1.( / / / / ].P P R G.Q.U.Q.zXzXkXU.I.P.T.kXMXMXMXMXSXSXAXAXmXK F K G G G N C B V V T Z V Z B 8 w a b ",
"c c c c 0 n ! E [.VXVXVXVX1.~ W / Q / ^ P H.K K Q.K E.U.U.U < d.I.T.T.R.MXMXMXmXmXmXzXE.J - K K F N N N N B B Z B B B a a 8 b w ",
"M c c c 0 c v v ! |.[.VXDX/ ~ Z ~ Z Q ~ P Q.K K K U U P.I.< < < T.I.T.R.kX^.).kXR.Q.E.K F - L J F F N N p N B B B p B Z 8 8 w b ",
"c c c c c 9 6 6 n ! ( [.VX1.~ Z I a Q ].Q.H.H K K U U U U , 1 w.d.d.T.kXkXkXR.E.J P.F J J O X J J K J N $ N N B N p p B B a b E ",
"c c c c x 9 9 x v b b ! ( E E ~ E a Q F.H.H.L K J U < P.P.P., , s.d.k.T.MXR.I.T.E.< < J > = X > = J F $ o N N N X o p p p 8 8 Z ",
"c c c x x x x x 9 0 b ! ( ! Z E E z I P I H O L J U ; 1 < d., w.s., s.d.g.d.q.d.Y.< < w.< , = , < < P.U F $ o L X o o p   p 8 Z ",
"c c c x x x x 9 6 9 6 a b E a 8 a a a a g f o N J P.I.P.I.q.: * & s.s.s.s.& q.d.d.q.q., , : = < d.1 = P.P.$ o $ - X X o   p B B ",
"c c x x x c x 6 v 6 6 7 b b E E a u u u p k f - F U.kXkXkXd.& 4 & s.j.k.f.s.t.k.v.v.nXs.& & , g.d., 1 1 < F = o - - X X o p B B ",
"c c i x v v x i 6 6 v 9 E E E Q i u 5 u g g f - J U.kXT.T., & & & k.j.h.;Xj.;X<XnX,XnXh.s.s.s.j.k.k.U ; $ = $ = = - - - o p N B ",
"c c x x i v v i i b b Q ! Q Z Z 8 5 5 p l H L L J P.I.I.d.& * & f.j.j.j.;X;X<X,XeX<X<Xu.u.f.s.s.k.d.3 d.< = X = O - J - o $ G G ",
"0 0 c i x b b a b b m ! ( Q Z a 5 5 5 a I g L F ; 3 3 lX3 & * & s.j.;X;X<X;X;X,XdX:X#Xp.p.h.s.y.j.d.3 R.U.< = - > - > L $ f F G ",
"0 c 9 9 i M m b m E m Q / ~ T ~ 5 7 u z I g L L ; ; 1 d.& * 4 s.t.s.<XnX,X;X#XpX#Xi.i.r.r.t.t.s.j.k.I.T.I.< ; = < : : : X - F L ",
"0 0 0 6 9 b m Q ! Q Q ^ / ~ D ^ 8 i a Q g o o $ ; ; 3 3 lXj.j.j.f.v.,X,XeXdXwXwX*Xl.6.7.r.u.h.v.nXkXnXlXT.d.d., , < : : = > ; F ",
"0 0 9 9 6 b n Q Q / ^ ~ ^ ^ R Z a 8 p p B p N ; U P.U j.lXnXj.+Xv.v.,X,XwXpXpXtX0X@Xl.i.a.y.h.k.j.k.j.lXj.d.d.q.q.w., , = = > < ",
"0 0 9 x i v b Q Q './ / / / T Z p 5 p B G F - ; P.d.s.s.f.h.h.p.;X;X>XwX0X0XtXwXtX%Xi.l.u.p.p.t.s.k.j.j.j.g.d.g.w.w.q.: = : = < ",
"9 9 9 9 6 6 a m ^ Q Q ].].R Z Z a g g I K J U U I.g.f.f.h.p.p.#X#X&X=X0X0X0X9XtX9X%X@Xl.z.z.h.f.k.s.j.j.j.f.q.s.g.w.w.< < ; : ; ",
"x x i x i i a z z Z Q ^ / I a I P I H h H S.T.T./.v.v.c.c.z.l.&X%X%X*XtX0X9XrXuX9XXX@Xl.i.z.c.h.h.s.k.v.j.s.q.q.g.g.g.P.w.J < < ",
"x x x v i i a z I H.].P P ^ I I F.H f O w.Y./.g.v./.,X<X;Xl.l.&X*XtXtXuXuXyXuXuX9X%X%X@Xx.p.c.h.h.y.h.j.v.f.f.g.g.d.Y.d.d.< ; ; ",
"i i i i d a z I P ].W.P H.^ P I g j h L Y././.v.KXKXeXeXwX=XqX0XrXiXuXuXuXfXfXuX9XXX@Xl.x.p.u.u.p.y.h.;Xv.j.h.v.Y.g.d.d.< < ; = ",
"v v M m '.'.{.].].Q.H.P H.].I I j Z.C.0.S.Y.nX/.KXKXeXeXwX0X0XtXyXfXfXyXyXfXuXuX9XXXl.l.z.z.u.r.y.t.y.c.c.h.v././.T.Y.P.< ; ; ; ",
"m V.|.|.|.}.}.}.}.{.Q.W.Q.I I g H Z.Z.A.~.b././.KXKXKXeXwXtXuXuXuXyXyXfXfXyXyXrX8Xl.XXqXl.x.p.p.a.r.2 h.h.f.h.nXj.T.k.U < U ; $ ",
"d V.|.|.}.}.AX}.MX_.Q.Q.K.K g j j C.S.S.Y.~./.KXKXKXeXwXwX0XwXyXyX7XyXyXyX7X8X9X8Xl.l.l.x.r.u.y.a.6.OX#X#Xy.u.h.v.T.kXU < $ $ N ",
"z '.'.|.{.{._.W.W.(.W.W.H.G.H h h m.C.S.Y././.v.KXeXeXwX0X0XrXrXyXyXyXyXyX7XrXrXXX6.6.6.i.a.a.i.a.OXOX;XOXp.s.s.s.I.I.U U $ $ C ",
"'.'.|.{.{.W.K.J.Q.J.Q.J.W.K H h h C.S.C.S.b.v.v.b.c.wXwX0X0XrX8XyX7X7XyXyX8XrX9X X6.6.6.6.7.a.i.OXOX$X$X#X+XOXk.s.3 I.zXY S F A ",
"`.`.{.{.{.`.J.J.J.J.J.J.G.G.H H m.C.C.e.e.n.b.b.b.&XqXqXqXqX8X6X7X7X7X7X8X6XXXrX1X X6.6. X# ) .X.X.X3X:X$X+Xy.y.+XU U lXU.Y S A ",
"`.{.{.{.{.W.K.K.J.J.G.G.G.H H Z.m.C.5.e.n.n.b.x.x.x.x.qXqX8X8X6X7X7X7X7X6X8XoXXXoX X X X6.6..X.X.X.X5X2X4XOXy.2 3 3 3 Y T T A V ",
"`.{.{.{.`.K.K.K.G.L.D.D.H j h h C.0.5.5.n.n.b.c.x.x.%XqX9X8X8X7X7X6X6XoX6XoXoX*X X.X.X.X.X.X.X.X.X.X-X5X:X+XOX2 2 $ $ S S A A C ",
"F.`.{.{.!.K.K.!.J.D.D.j h k f j C.5.5.n.n.n.b.c.x.x.x.qX8X8X8X6X7X7X7X6X6XoXoX3X.X.XoX3X3X.X5X.X.X3X5X.XOX+X+X` 3 3 3 F C A S w ",
"F.K.`.K.W.K.G.G.G.D.H g g k k k m.0.0.e.b.c.c.x.l.x.%X%X9X8XoXoXoXjXoXoXhXoX.X.X X# .X.X.X) ) ) ) .X.X) y.y.+XI.U F C C V V V C ",
"`.{.`.K.W.J.D.D.D.j g k s + k m.C.m.e.n.b.c.x.x.qX0XqX9XrXrXXXoXoXjXhXhX1X3X.X.X# # # ) ) ) ) ) ) 5X+X) 4 4 1 F Y A V V A D V w ",
"`.`.H.H.K.J.D.H l j k k + + + m.m.e.e.n.b.b.x.z.&XwXpX0XtXiXoXoXoXoXiXuX2X-X-X6.@ @ @ @ # @ # ) OX+XOX2 4 4 $ F R T V V D V V r ",
"`.`.H.L.H.H.D.H l k k k k + + k 5.5.e.e.u.n.p.x.;XqX=XtXaXaX2XiXoX X3XaXaX=Xl.# @ @ @ @ @ @ @ @ 2 OX2 1 3 3 ; C R A Z V Z V r r ",
"K.K.H.H.K.K.l l z s s k + + + O O 5.e.e.8.8.u.x.&X#X@X=X4X2X3X4XpX=X>XpXwX>Xz.a.7.@ @ @ @ @ @ 9.2 y.3 , 3 Y A V R Z Z W e w w w ",
"H.K.H.H.`.F.M.z d s u s s + + O 5.C.Y.e.8.8.8.u.p.u.i.$X4X2X3XhXdX>X<X>X#X#Xc.z.r.7.9.9.* 9.* 2 & 2 3 % ; S S D W W t W t e w w ",
"H.W.K.`.`.F.z z d s s k k O O 5.5.S.Y.e.8.8.9.r.2 r.a.OX$X2X2XaX>XKX,X#X#Xz.z.p.r.9.* 8.8.8.& 1 1 3 % ; S S S D W W W t E e e w ",
"H.H.H.F.F.M.z d s d k B.m.m.m.m.0.Y.g.e.8.9.8.9.r.#Xp.r.6.$X3X4X4XsXeX;X>X>Xi.7.r.r.2 & s., 1 1 Y +.Y S D D r r t -.W W y w e w ",
"I H.H.F.l z z d s s s m.m.m.5.5.5.e.e.e.8.e.9.* 9.r.r.r.i.6.OX2XpXsX>X>X4X=Xa.a.y.2 2 2 1 3 $ $ Y @.@.o.o.o.D e -.e e e e w e e ",
"F.H.K.F.k k k k s s B.m.m.5.5.0.5.0.5.8.8.8.9.9.* 9.r.r.#X$X=XaXpXsXpX=XaX4X#X:X:X+X3 4 $ % Y X.@.ZX,.o.o.-.o.-.-.-.e e e w e -.",
"F.`.`.F.g k k k m.m.m.L.C.0.0.0.5.0.e.e.e.f.5.9.s.h.p.u.#X4XtX2XgXgXaXaXgX4X+X4XNXcXlX` Y +.@.@.,.,.,.,.>.;.;.<.<.-.t ] e e w -.",
"N.F.F.L.N.Z.D.L.N.A.L.A.A.C.e.0.0.0.0.e.g.g.g.e.v.v.j.p.;X>XpXsXgXgXgXgXgX4X:X:XNXNXcXbX@.%.%.1.,.2.>.,.<.>.<.<.<.<.-.-.-.o.D -.",
"V.M.M.L.D.L.J.(.).(.(.~.S.S.w.0.5.: : w.Y.Y.T.v.nXv.c.+X:X>X4XgXIXIXUXUXUXgX4XNXNXMXcXxX@.bXZXCXJX3.>.>.3.<.>.;.<.;.} ;.:.-.] -.",
"V.M.N.D.G.(.(.(._._.).~.Y.w.0.> w.> > : w.d.T.nXMXnX<X<X:X=X4XgXUXUXUXUXUXGXNXlXlXlXlX@.bXZXCXCXJX>.,.>.JX>.;.;.;.-.-.;.-.| } } ",
"V.V.N.N.!._.).)._._.).).~.Y.w.w.S.S.J S.< d.R.kXMXNXnX<XNXwXpXsXIXUXIXGXNXNXNX+XlXlXxXbXbXZXZX@.%.;.;.,.<.3.>.;.-.] | -.} } | } ",
"M.N.N.N.!._._.).MXKXMXMXnX^.Y.w.J J P.U.U.U.T.kXMXNXNXnXLXIXgXIXgXGXGX5X+XcXcXlXlXxXxXxXbX%.@.X.o.o.o.O.>.>.>.>.;.-.:.} ' q | ' ",
"d N.V.L.L.!._.).).KXMXMX^./.~.~.U.Y lXQ.@.zXxXxXBXBXNXNXGXIXIXsXIX4X4XcXlXcXcXI.Y R R xXbX$.$.@.*.*.;.,.3.3.[ O.| 3.} :.} q { ' ",
"B.B.N.N.L.!.!.(.)._.).KX^.^.~.^.Y zXxXxXZXmXmXbXbXNXNXIX4XIXgXsXgX4X+X+XlXcXlXY K R @.%.CX&.bXbX,.CX,.2.2.| ..| 3. .} ..' q { ' ",
"B.B.B.N.!.!.J.~.).^.^.^.^.^.^.).zXxXAXAXAXSXZXBXBXBXUXLXIXsXsXsX4X:X5X` ` cXlXY Y Y @.%.CXvXFXvXCXHX2.2.2.O.| [  .| | ' { { ....",
"V.d B.L.!.N.A.(.).).^./.^.MX).^.U.zXxXAXAXAXBXmXNXBXGXLXgXaXpX=X=X:X5X+XcXcXcXxX% S S ZXCXvXvXvX&.HXHX2.2.| [ [ ....| ..{ ......",
"V.B.d N.L.L.J.(.(.~.~./.^.^.^.Y.U U.Q.xXAXmXmXnX+XnX4XsXsX2X1X-X=X4X4X` cX4.cXcXcXX.X.$.%.o.vXvXvXHXHX2.O.[ ' ' } {  ...{ ......",
"B.B.M.B.N.L.J.(.~.~.~.~./.^.~.S.J E.zXmXmXmXlXI.+XOX:X:X2X2X*X-X>X:X5X` +XbXvX#.bX#.X.X.X.X.bX$.%.vX4.4.O.;.[ [ { {  .{ { { { ..",
"d m V.z N.L.J.(.A.~.~.A.~.~.Y.Y.J P.E.Q.R.R.j.s.t.p.$X*X1X*XoX*X5X4X` ` #.#.$.#.4.#.=.=.X.o.vX$.$.$.&.4.2.2.| ..| {  ...{ { { { ",
"V.d d V.H.D.Z.J.Z.J.~.A.Y.~.Y.Y.< J J < S.d.q.8.r.i.$X*X1X1X*X2X4XGXcX` =.#.$.&.*.=.*.&.=.O.vX$.$.&.FX2.2.2.O.[ ' |  . ...y { { ",
"d m z M.L.D.J.J.A.A.A.~.A.Y.n.Y.S.J < w.w.< 8.r.7.i.$X1X1XoXrXaX4XBXcX#.vX=.*.FX*.#.O.*.O.*.,.CXFXFXFXHX2.2.O.O.' }  . .} t t y ",
"i z M.`.K.G.Z.G.Z.Z.A.S.A.Y.~.Y.S.w.0.w.g.s.8.9.7.6.%XtXtXrXiXaXIX` ` vX$.*.FX*.&.O.O.*.O.4.HXCXFXHXHX4.O.=.S ' ;.] t q r q q y ",
"d z F.'.K.H.G.Z.Z.Z.h m.C.S.Y.Y.w.w.w.e.e.f.8.7.l.6.XX*X1X1XtX4XIXNX. $.HX*.&.HX%.*.=.*.*.4.2.vXbXFXFXcX*.4.,.,.o.o.} -.t t w q ",
"m z M.F.D.D.G.A.Z.m.h O 0.0.w.g.Y.g.g.g.f.u.u.7.@X%X-X*X-X*X-X$X:XPX. % bX&.$.vX$.*.4.*.=.=.=.X.% ` #.vXbXvX%.o.o.-.;.-.t t W t ",
"M.z M.H Z.H Z.Z.Z.Z.h h L 0.w.w.g.g.v.n.u.u.r.l.@X*X*X-X XXXOX6.+XNXbX% . @.,.Y +.+.+.=.=._ _ X.*.#.#.+.+.bXbX%.D o.-.t y y t t ",
"z M.M.I H H H H Z.j j h 0.> w.w.f.g.v.b.u.x.x.z.%X*X1X@X X-X6.# p.+XNXcX$ . @.Y % ` _ _ _ _ _ #.` X.+.cXbXvXBX@.S e t -.t t q q ",
"z z N.H H H H h j j f h > : , q.n.b.v.b.b.x.&X&X%X*X*X*X$X$XOX2 y.:X` NX$.  $ 3 lX#.` _ % % % ` cX+.lXbXbXBXSXZXo.e t -. .t y y ",
"z l M.H H C.H h j f k f O O : q.f.b.KXc.b.&XwXwX0X-X-X2XpX3XOXOXa.2 ` 3 lXxX  $ cX+X` _ _ _ ` #.$.+.cXBXBXBXSXbXX.o.t  . ...t y "
};
