/* XPM */
static char *_16a62744cf946b1c72383f9911e3ad6eMSPMNh31AlDY0dM[] = {
/* columns rows colors chars-per-pixel */
"64 64 212 2 ",
"   c #1D241C",
".  c #212C16",
"X  c #232D1B",
"o  c #25321A",
"O  c #29351C",
"+  c #2D3A1E",
"@  c #232C21",
"#  c #273121",
"$  c #2B3423",
"%  c #2E3B21",
"&  c #2F3829",
"*  c #313D26",
"=  c #333E29",
"-  c #313728",
";  c #3C3F38",
":  c #344225",
">  c #36432A",
",  c #39462D",
"<  c #3C492E",
"1  c #3C4533",
"2  c #3E4B31",
"3  c #364130",
"4  c #424B2F",
"5  c #414D33",
"6  c #41473A",
"7  c #464D39",
"8  c #465135",
"9  c #495436",
"0  c #465139",
"q  c #4A553B",
"w  c #4D5A3B",
"e  c #495837",
"r  c #515E3D",
"t  c #595E3C",
"y  c #545837",
"u  c #5A5522",
"i  c #52613E",
"p  c #5B613F",
"a  c #686536",
"s  c #69642F",
"d  c #484C44",
"f  c #4C5344",
"g  c #525D42",
"h  c #565D4D",
"j  c #54584D",
"k  c #575A54",
"l  c #566444",
"z  c #586646",
"x  c #5A6946",
"c  c #5A674A",
"v  c #5D6B4B",
"b  c #5E6359",
"n  c #5C6354",
"m  c #6D6B44",
"M  c #606E4D",
"N  c #686A44",
"B  c #716E45",
"V  c #716E48",
"C  c #62704F",
"Z  c #6E7147",
"A  c #73754A",
"S  c #79764D",
"D  c #7C7C4D",
"F  c #757348",
"G  c #656F51",
"H  c #656C5C",
"J  c #63675B",
"K  c #657351",
"L  c #697655",
"P  c #697955",
"I  c #6D7A5B",
"U  c #6A765A",
"Y  c #7C7C51",
"T  c #757C5F",
"R  c #666A62",
"E  c #666764",
"W  c #6E716B",
"Q  c #6D7167",
"!  c #72756D",
"~  c #75796F",
"^  c #7A7D77",
"/  c #777876",
"(  c #807D55",
")  c #7A8262",
"_  c #7F827B",
"`  c #7C8077",
"'  c #848454",
"]  c #85825C",
"[  c #8D8B5B",
"{  c #8A8758",
"}  c #94925C",
"|  c #9B965E",
" . c #888965",
".. c #89916F",
"X. c #9E9B62",
"o. c #96936D",
"O. c #96936B",
"+. c #82887B",
"@. c #8C9271",
"#. c #8C977E",
"$. c #9B9D7C",
"%. c #989976",
"&. c #908D64",
"*. c #A39E61",
"=. c #A29F79",
"-. c #9CA07D",
";. c #A6A265",
":. c #A8A467",
">. c #A9A568",
",. c #AEA96B",
"<. c #B1AC6C",
"1. c #AEAA72",
"2. c #A5A37C",
"3. c #B1AD77",
"4. c #B4B17B",
"5. c #B8B374",
"6. c #858685",
"7. c #8C8C8B",
"8. c #878A83",
"9. c #8E908B",
"0. c #91938E",
"q. c #939A89",
"w. c #908F92",
"e. c #939491",
"r. c #979995",
"t. c #9C9E9B",
"y. c #9CA288",
"u. c #9EA19B",
"i. c #9FA596",
"p. c #ACAE8B",
"a. c #A3A682",
"s. c #B2B28D",
"d. c #BBB886",
"f. c #A0A39C",
"g. c #A6AC9E",
"h. c #BCBA94",
"j. c #BDBE99",
"k. c #B7B792",
"l. c #AFAF8A",
"z. c #A3A3A2",
"x. c #AAABA7",
"c. c #ADADAC",
"v. c #B4B4B4",
"b. c #BCBCBC",
"n. c #B8BAB5",
"m. c #B1B3AE",
"M. c #C1BE8D",
"N. c #C0BE98",
"B. c #BFC09A",
"V. c #BFC0BE",
"C. c #C4C29C",
"Z. c #CDCA9A",
"A. c #C8C594",
"S. c #C5C5A0",
"D. c #C8C7A0",
"F. c #CCCAA3",
"G. c #D0CEA7",
"H. c #D5D3AB",
"J. c #D9D6AE",
"K. c #DAD8AE",
"L. c #D4D2A7",
"P. c #C1C1BF",
"I. c #D9D7B0",
"U. c #DEDCB4",
"Y. c #E1DFB6",
"T. c #E2E0B7",
"R. c #E5E3BA",
"E. c #E9E6BD",
"W. c #EBE8BF",
"Q. c #C3C3C3",
"!. c #CCCCCD",
"~. c #CFCED0",
"^. c #D3D3D3",
"/. c #DDDCDD",
"(. c #D0D4CB",
"). c #EDEBC1",
"_. c #F0EDC2",
"`. c #DFDFE0",
"'. c #E3E3E4",
"]. c #E7E7E8",
"[. c #EDEDED",
"{. c #E8E8E9",
"}. c #EFF0EF",
"|. c #F0F0EF",
" X c #EFEDF2",
".X c #F0EFF2",
"XX c #F1F1F1",
"oX c gray94",
"OX c gray95",
"+X c #F3F3F3",
"@X c #F2F3F2",
"#X c #F1F1F2",
"$X c #F4F4F4",
"%X c gray96",
"&X c #F4F5F4",
"*X c #F6F6F6",
"=X c gray97",
"-X c #F6F7F6",
";X c #F6F6F6",
":X c #F4F4F4",
">X c #F8F8F7",
",X c #F7F7F9",
"<X c #F8F8F8",
"1X c #F9F9F9",
"2X c gray98",
"3X c #FBFBFB",
"4X c #F9F9FA",
"5X c white",
"6X c #FFFEFF",
"7X c #FDFCFD",
"8X c #FBFBFB",
"9X c #F8F7F9",
/* pixels */
"7X%XOX2X%XOX2X%X[.2X2X[.2X2X[.2X2X[.2X2XOX%X8X[.9X2XOX%X2X.X%X2XOX%X2XOX%X7XOXOX3XOX&X3X+X+X3XOXOX3XOXOX7XOXOX2X%XOX7X%XOX2X%X|.",
"OX%X2XOX%X2XOX%X2X%XOX2XOX%X2XOX%X2XOX+X%X2X[.2X%XOX2X%XOX2X%XOX2X%XOX2X%XOX2X>X%X3X%XOX>X>XOX9X>XOX>X9XOX%X9XOX%X2X+X%X2XOX%X2X",
"2X%XOX2X%XOX2X2XOX2X%XOX2X%XOX%X%XOX2X%X2X[.j v.7X%XOX%X%X%X%X9XOX%X2XOX%X2XOX%XQ ~.7X%X+X%X9X%X%X2X%X%X2X%XOX2X%X%X2X%XOX2X%XOX",
"OX%X2XOX%X2XOX%X2XOX%X2X+X%X2X%XOX2X%X%X=XH e n OX%X2X%X%X2X%X%X%X%X%X>X%XOX7Xt.> ~ 7XOX>X>XOX>X%X%X%X%X+X%X>X+X%X%X+X%X%X%X%X2X",
"%X%X%X%X%X%X%X%X%X%X%X%X%X>X%X%X%X%X%X7X^ e I e t.7XOX%X%X%X%X=X%X%X%X%X%X7X/.q P 8 v.7XOX%X=X%X%X%X%X%X>X%X%X9X%X%X9X%X%X%X9X%X",
"2X%X%X%X%X%X%X%X%X%X%X%X%X%X%X%X%XOX7Xv.* P v v h +X%X%X=X%X%X%X%X2X%X%XOX7X7.r K v n OX%X%X%X%X%X%X%X%X%X%X%X%X%X%X%X%X%X%X%X%X",
"%X%X2X%X%X2XOX%X2X%X%X2X%X%X2X%X%X%X&Xd 4 K M K q Q.7X%X%X>X%X%X%X%XOX%X2X.Xh M M K 8 v.7X%X%X%X9XOX%X%X%X%X%XOX>X>X%X%X%X%X%X2X",
"%X%XOX2X%X%X2X%X%X%X%XOX2X%X%X%X%X7Xn.o i C v K w u.7X%X9X+X%X2X%X%X2XOX7X^.q K v C l ~ 7X+X=X%X%X2X%X%X2X%X%X2X%X%X>X%X&X2X%XOX",
"OX%X2XOX%X2XOX%X2XOX%X2XOX%X2X+XOX7X9.o w K v L q u.7XXXOX=X+XXX%X%XOX%X2X'.f M M K l j =X=XOX=X=XOX2X%XOX%X%XOX%X2XOX%X2XOX%X2X",
"2X%XOX2X%XOX2X2XOX2X%XOX2X%XOX2X%X7Xn.X 5 c C l f ].8X7X7X7X7X7X7X7X7X7X7X7Xb.q K z H P.2X+X2X+X+X2XOXOX2X%XOX2X%XOX2X%XOX2X%XOX",
"OX%X2XOX%X2XOX%X2XOX%X2X+X%X2XOXOX=X7Xe.o l z Q {.%X].^.V.b.x.u.f.u.u.x.m.Q.b.q P 8 !.7X=X%XOX>X2XOX>X2XOX9X2XOX%X2XOX%X2XOX%X2X",
"2X%XOX2X%XOX2X%X}.=X%XOX2X%XOX%X>XOX%X7XW < M J 8.H c l r r i i i i i i r r g v C i _ `.[.7X7XOXOX2X%XOX2X%XOX2X%XOX2X%XOX2X%XOX",
"OX%X2X%X%X2XOX%X2X%X%X2XOX+X2X+X%X%X2X7X/ : P z i v C C C K K K C K C K K C C C M C l l H r./.7X%XOX%X2XOX%X2XOX%X2X%X%X=XOX%X2X",
"%X%XOX2X%X%X2X%XOX%X%X%X%X2X+X%X%X7X/.b + z C C C C C C M M v M M M M M M M M M v M C K v i h g.7X2XOX%X2X%XOX2X%XOX2X%XOX2X%XOX",
"%X%X%X%X%X%X%X%X%X%X%X%X%X%X%X%X7Xx.* % z K v l v C v C M M M M M M M M v M M M C C v l i x v e _ %X2X%X%X%X2X%X%X%X%X%X>X%X%X9X",
"%X%X%X%X%X%X%X2X%X%X%X%X%X%X2X7X_ o , w K l U #.K x C v M M v v v M v M M v M M M v v i.(.i.v K w ! 2X%X%X%X%X%X%X%X%X%X%X%X%X%X",
"2X%X%X%X%X%X%X%X%X>X%X+X+X9X9XR o 4 < v z q.`.^ Q._ x C C M K P P P K K P K M M C i n.XXk  Xn.l L e ^ 7X%X%X%X9X2X>X>X&X&X>X%X%X",
"%X%X2XOX%X2X%X%X+X>X9X3X3X2XJ O 5 , 8 K l P.7X^ .Xi.i K M C w &       @ $ 0 M M C l q.'.x.`.q.z C P e t.7X+X%X[.{.{.OX&X%X&X%X>X",
"2X%XOX2X%X%X%X%X^.^.^.^.{.E X < > > w C v K x.(.y.c C C M M l 8 = #   # 1 g M M v C z I q.U z v l g z 1 n./.^./././.2X8X>X2X%X+X",
"OX%X2XOX%X2X%X2X7X>X[.7X! . < = = * g M M M i i l M v v M M C K P K C P P C M M M M C c l v K v c v M r n [.'.'.].]./.`.`.].>X2X",
"2X%XOX>X%X%X].^.^.^.].w.X , = : > 0 C C M M M G G v C C C C C M C g l C M M C C C M M M C v C v c c v M < t.{.'.'.`.{.'./.OX%XOX",
"OX%X2XOX%X7X{.[..X>XV.o < , > > > w v v M M M C K M v c l l z z z c c l l l l z c M M M K v v v l l g l r k ].^./.'.`.[.7X%X%X2X",
"2X%XOX2X%XOX2XOX[.[.6 * = = : * , l c C K M v z l v P ) @.a.p.k.j.B.B.j.k.p.-...) K v l c v M G M M G M K q 0.7X].`.'.'.+X>X%XOX",
"OX%X2XOX&X2X[.^.`.j o , > , , , g K C v l c P @.p.D.U.R.W.W.E.E.E.E.E.R.E.W.E.E.T.I.B.a. .G z l M M M M M G q 8.7X3X%X2X2X&X%X2X",
"2X%X%X%X%X%X%X7Xe.o 5 , < < , < c c l L %.j.I.W.E.R.R.T.U.U.Y.U.U.U.U.Y.U.T.R.U.U.R.R.E.R.H.s...K l v C K v K e +.7X%X%X%X2X%X%X",
"%X%X%X%X%X+X7Xb.O 2 , , , , , < z ) s.K.E.E.T.U.U.R.H.U.W.Y.Y.Y.Y.Y.Y.Y.R.I.F.R.E.Y.Y.Y.Y.R._.H.s.a.I l v C v L e t.7X%X%X%X%X%X",
"%X%X>X%X&X8X].3 > < , < < , * G S.R.R.).R.U.Y.T.T.%.S ] 2.R.Y.Y.Y.T.Y.R.C.S  . .h.R.Y.Y.Y.R.l.B { o.H.p.L c C v K 8 Q.7X%X%X2X%X",
"=X%X%X>X>X7Xk + 2 , , 2 , 4 ( H.C.Y ] o.C.R.U.W.h.m Z.H.=.F.R.Y.Y.Y.U.E.=.k.W.G.h.Y.Y.Y.Y.Y.] N.).k.D._.Y.) c G G v h .X%X%X%X%X",
"+X%X9X[.7Xe.o 8 , , , , < | 5.S.V h.I.N.o.D.R.T.H.G.E.T.W.Y.Y.Y.T.T.U.Y.T.R.T.T.E.Y.Y.Y.Y.Y.I.R.U.E.R.U.E.F.v v M K w r.7X|.%X2X",
"2X%XOX7X^.- < , , , 2 : A ,.1.I.G.E.R.E.R.U.Y.Y.T.E.Y.Y.Y.Y.Y.Y.Y.T.T.Y.U.T.T.T.Y.Y.Y.Y.Y.Y.T.Y.Y.U.Y.U.U.E.$.l C M C f ].7X%XOX",
"OX%X2X2Xk % 2 , , < , < *.;.4.R.R.U.Y.U.Y.R.R.Y.Y.Y.Y.Y.Y.Y.Y.Y.R.K.H.E.R.Y.Y.Y.Y.Y.Y.E.E.R.R.Y.Y.Y.Y.U.R.E.J.G v M K e t.7XOX2X",
"2X+X7Xm.o 5 , , , < : S 5.>.M.R.U.Y.Y.T.R.F.F.E.Y.Y.Y.Y.Y.Y.Y.R.C.D F &.G.R.U.Y.Y.Y.R.h.{  .F.R.Y.Y.U.E.J.C.).-.l C M v n =X%XOX",
"OX>X2Xd : < , , < > 8 | a s d.E.Y.Y.Y.R.2.B B O.Y.Y.Y.Y.Y.Y.R.H.B O.C.[ V I.R.Y.Y.R.h.m k.O.( ).Y.U.Y.S.S a =.I.J M M L 9 Q.7X>X",
"%X7Xc.O 2 < , , < * S s a u S ).Y.Y.R.D.a h.H.%.N.R.Y.Y.Y.Y.R.L.k.E.E.Y.s.I.Y.Y.Y.R.F.N._.R.Z.Y.Y.Y.Y.Y o.F.( U...l M L q 0.7X[.",
"OX7XR % 2 , , < , 4 } ' 5.>.s.R.Y.Y.R.J.C.).R.E.Y.Y.Y.Y.Y.Y.Y.R.E.Y.U.Y.W.Y.Y.Y.Y.Y.R.E.Y.Y.R.Y.Y.Y.Y.N.Y.).I.Y.k.l C M z R 7X2X",
"2X].= , , , < > : m <.,.:.*.Z.R.Y.Y.Y.Y.R.Y.Y.Y.Y.Y.Y.Y.Y.Y.Y.Y.Y.Y.Y.Y.Y.Y.Y.Y.Y.Y.Y.Y.Y.Y.Y.Y.Y.Y.Y.).Y.Y.Y.Y.J.h l M M g ].9X",
"7XV.O 2 , , < $ , | >.;.>.*.M.R.U.Y.Y.Y.Y.Y.Y.Y.Y.Y.Y.Y.T.Y.Y.Y.Y.Y.Y.Y.Y.Y.Y.Y.Y.Y.Y.Y.Y.Y.Y.Y.Y.Y.Y.Y.Y.Y.Y.U.E.! 5 K C 0 !.7X",
"7Xt.o 2 , , , $ t ,.;.:.>.*.d.E.Y.Y.Y.Y.Y.Y.Y.Y.Y.Y.Y.Y.Y.Y.Y.Y.Y.Y.Y.Y.Y.Y.Y.Y.Y.Y.Y.Y.Y.Y.Y.Y.Y.Y.Y.Y.Y.Y.Y.Y.E.%.5 K K e n.7X",
"7X0.o 5 , < > o ( ,.;.:.:.;.d.Y.Y.Y.Y.Y.Y.Y.Y.Y.Y.Y.Y.R.Y.Y.Y.Y.Y.Y.Y.Y.Y.Y.Y.Y.Y.Y.Y.Y.Y.Y.Y.Y.Y.Y.Y.Y.Y.Y.Y.Y.E.l.2 G K w z.7X",
"7X7.o 2 , < = - X.,.;.:.:.*.1.Y.Y.Y.Y.Y.Y.Y.Y.Y.Y.Y.Y.Y.Y.Y.Y.T.Y.Y.Y.Y.Y.Y.Y.Y.Y.Y.R.Y.Y.Y.Y.Y.Y.Y.Y.Y.Y.Y.Y.Y.E.h.5 C K w r.7X",
"7Xz.o 5 , < % 5 >.:.:.:.:.:.*.L.Y.Y.Y.Y.Y.Y.Y.Y.Y.Y.Y.Y.Y.Y.Y.Y.Y.Y.Y.Y.Y.Y.Y.Y.Y.Y.Y.Y.Y.Y.Y.Y.Y.Y.Y.Y.Y.Y.Y.U.E.B.7 C K w 9.7X",
"7XQ.O < , < $ y <.;.:.:.:.:.*.A.R.Y.Y.Y.Y.Y.Y.Y.Y.Y.T.Y.Y.Y.Y.Y.Y.Y.Y.Y.Y.Y.Y.Y.Y.Y.Y.Y.Y.Y.Y.Y.Y.Y.Y.Y.Y.Y.Y.Y.R.j.2 K K w e.7X",
"7X[.1 , , 4 # p <.:.:.:.:.:.:.3.Y.Y.Y.Y.Y.Y.Y.Y.Y.Y.Y.Y.Y.Y.Y.Y.Y.Y.Y.Y.Y.Y.Y.Y.Y.Y.Y.Y.Y.Y.Y.Y.Y.Y.Y.Y.Y.Y.Y.Y.W.l.5 K K w r.7X",
"[.7X/ O 2 < O t <.*.:.:.:.:.:.*.F.R.Y.Y.Y.Y.Y.Y.Y.Y.T.Y.Y.T.Y.Y.Y.Y.Y.Y.R.Y.Y.Y.Y.Y.Y.Y.Y.R.Y.Y.Y.Y.Y.Y.Y.Y.Y.Y.W.$.8 K K q ^.7X",
">X7X~.$ < < % 8 ,.;.:.:.:.:.,.*.3.Y.Y.Y.Y.Y.Y.Y.Y.Y.Y.Y.Y.Y.T.Y.Y.Y.Y.Y.Y.Y.Y.Y.Y.Y.Y.Y.Y.Y.Y.Y.Y.Y.Y.Y.Y.Y.Y.Y.W.! q L w _ 7XOX",
"%X&X7X/ o 5 * * X.,.:.:.:.:.:.:.:.Z.R.Y.Y.Y.Y.Y.T.Y.Y.Y.Y.Y.Y.Y.Y.Y.Y.Y.Y.Y.Y.Y.Y.Y.Y.Y.Y.Y.Y.Y.Y.Y.Y.Y.Y.Y.Y.Y.K.g v L 0 '.8X%X",
"%X%X9X{.7 > 1 O D <.*.:.:.:.:.:.:.:.K.R.Y.Y.Y.Y.Y.Y.Y.Y.Y.Y.Y.Y.Y.Y.Y.Y.Y.Y.Y.Y.R.Y.Y.Y.Y.Y.Y.Y.Y.Y.Y.Y.Y.Y.Y.W.p.O f - ! {.2X+X",
"%X>XOX7Xz.. = X 0 :.:.:.:.:.:.:.,.*.3.Y.Y.Y.Y.T.Y.Y.Y.T.Y.Y.Y.Y.R.Y.Y.Y.Y.Y.Y.Y.Y.Y.Y.Y.Y.Y.Y.Y.Y.Y.Y.Y.Y.Y.Y.Y.H j d 6.Q.[.%X%X",
"%X%X2XOX=XE W ; X Y <.*.:.:.:.:.:.>.*.4.Y.R.Y.Y.Y.Y.Y.Y.Y.Y.T.Y.Y.Y.Y.Y.Y.Y.R.Y.Y.Y.Y.Y.Y.T.Y.Y.Y.Y.Y.Y.Y.U.).$.h ~.7.OX^.7X%X=X",
">X%X+X%X2Xn.7Xw.# 5 X.,.:.:.:.:.:.:.,.*.4.U.R.Y.Y.Y.Y.Y.Y.Y.Y.Y.Y.Y.Y.U.Y.Y.U.Y.Y.Y.Y.Y.Y.Y.Y.Y.Y.Y.Y.Y.U.).C.q 8.7X/.%X[.%X%X+X",
"OX%X2X+X%X2X|.OXJ O z <.;.:.:.:.:.:.:.:.*.1.L.R.Y.Y.Y.Y.Y.Y.Y.Y.Y.Y.Y.R.Y.Y.Y.Y.T.Y.T.Y.Y.Y.Y.Y.Y.Y.Y.Y.E.F.L 8 ~.7X%X%X2XOX%X2X",
"2X%XOX2X%XOX%X7Xz.o > F <.;.:.:.:.:.:.:.>.;.;.M.Y.R.Y.Y.Y.Y.Y.Y.T.Y.Y.Y.Y.Y.Y.Y.Y.Y.Y.Y.Y.Y.Y.T.Y.Y.Y.W.D.K r ! 7XOX2X%XOX2X%XOX",
"OX%X2XOX%X2XOX%X=X1 > : D <.;.>.:.:.:.:.:.:.:.*.1.C.Y.R.R.Y.Y.Y.Y.Y.Y.Y.R.U.Y.Y.Y.Y.Y.Y.Y.Y.T.U.Y.Y.R.p.v K q n.7X%XOX%X2XOX%X2X",
"2X%XOX2X%XOX2X+X7Xx.o 2 = S ,.>.*.:.:.:.:.:.:.:.:.;.1.A.J.R.R.T.Y.Y.Y.U.Y.Y.Y.Y.Y.Y.Y.T.T.Y.U.R.W.G...z C l W 7X%XOX2X%XOX2X%XOX",
"OX%X2XOX%X2XOX%X=X7XJ + 2 = N ;.<.:.:.:.:.:.:.:.:.:.:.*.>.d.Z.J.R.R.R.R.U.Y.U.U.Y.Y.U.U.U.R.W.H.$.M c M K 7 ^.2X%X=XOX%X2XOX%X2X",
"2X%XOX>X%X%X9X%X+X8X[.d % 5 : 5 ' ,.<.>.*.:.:.:.:.:.:.:.:.*.*.>.3.M.Z.H.U.R.R.R.R.R.E.W.R.F.$.K z M M L e e.7X%X%X%X2X%XOX2X%XOX",
"%X%X=X%X%X=X%X%X=X+X7X'.f O 2 1 > t ' :.<.,.,.:.;.;.:.:.;.:.:.;.;.*.;.;.,.4.d.A.Z.Z.C.-.T l l z v c K e ! 7X%X%X%X%X+X%X=X%X%X2X",
"%X%X%X=X%X%X%X=X%X%X+X7X[.W O : < > > e Z [ *.,.<.<.,.,.,.,.,.,.<.,.1.,.>.*.} ) a 9 > : > , 2 < < < o k .X2X%X%X%X%X2X%X%X%X%X%X",
"=X=X%X%X=X%X%X%X%X=X=X+X8X7Xn.b * + : 1 > , 9 g Z ) ' [ } } } [ D D A N p y : : > 1 2 5 2 5 , > , , ! OX7XOX%X%X%X%X=X%X%X%X%X%X",
"+X%X=X+X%X2X%X%X=X+X%X=X+X+X7X8X!.t.H # O > . o . . o O o O o = n 3 o o o + + + + % + O o   2 2   E 2X2XOX=X%XOX2X%X+X%X=X%X%X2X",
"2X%X+X2X%XOX2X%XOX2X%XOX2X=XOX%X7X7X^.z.Q.7.0.b.9.8.q.9.0.0.x./.7X'.Q.u.8.8.` +.! R z.m.r.6.!.[.^.^.^.>X2X%XOX2X%XOX2X%X+X2X%XOX",
"OX%X2XOX+X2XOX%X2X+X%X2XOX+X2XOXOX%X+X7X7X%X7X7X3X3X7X7X7X7X7X2X>X3X7X7X3X7X7X7X7X7X7X7X7X7X%X3X7X3X3X2XOX=X2XOX%X2XOX%X2XOX%X2X",
"2X%XOX=X%XOX2X>XOX=X=XOX2X=XOX=X=XOX%X%XOX2X%X[.&X%X|.%X%X[.OX2XOX&X%X|.+X%XOXOX2X|.OX%XOXOX2X+XOX2X&X+X2X%XOX2X%XOX2X%XOX2X%XOX",
"XX%X8XXX%X8XXX+X8XOXOX8XOX+X7XOXOX7X%XOX7XOXOX3X&XOX7X%XOX3X%X|.3X%XOX2X>X}.2X>X[.2X2X[.2X2X[.2X>X[.2X2X[.=X2XXX=X2XOX%X2XOX%X8X"
};
